<?xml version="1.0" encoding="UTF-8" standalone="no"?>
<svg
   xmlns:ns="http://creativecommons.org/ns#"
   xmlns:dc="http://purl.org/dc/elements/1.1/"
   xmlns:cc="http://web.resource.org/cc/"
   xmlns:rdf="http://www.w3.org/1999/02/22-rdf-syntax-ns#"
   xmlns:svg="http://www.w3.org/2000/svg"
   xmlns="http://www.w3.org/2000/svg"
   xmlns:sodipodi="http://sodipodi.sourceforge.net/DTD/sodipodi-0.dtd"
   xmlns:inkscape="http://www.inkscape.org/namespaces/inkscape"
   version="1.0"
   width="478"
   height="500"
   viewBox="0 0 8000 7609"
   id="svg3477"
   sodipodi:version="0.32"
   inkscape:version="0.44"
   sodipodi:docname="DZ-11.svg"
   style="display:inline"
   sodipodi:docbase="D:\Temporary\maps\dz\00">
  <defs
     id="defs24" />
  <metadata
     id="metadata5751">
    <rdf:RDF>
      <ns:Work
         rdf:about="">
        <dc:format>image/svg+xml</dc:format>
        <dc:type
           rdf:resource="http://purl.org/dc/dcmitype/StillImage" />
      </ns:Work>
      <cc:Work
         rdf:about="">
        <dc:format>image/svg+xml</dc:format>
        <dc:type
           rdf:resource="http://purl.org/dc/dcmitype/StillImage" />
      </cc:Work>
    </rdf:RDF>
  </metadata>
  <sodipodi:namedview
     inkscape:window-height="727"
     inkscape:window-width="1024"
     inkscape:pageshadow="2"
     inkscape:pageopacity="0"
     guidetolerance="10.0"
     gridtolerance="10.0"
     objecttolerance="10.0"
     borderopacity="1.0"
     bordercolor="#666666"
     pagecolor="#ffffff"
     id="base"
     inkscape:zoom="2"
     inkscape:cx="244.49465"
     inkscape:cy="229.7081"
     inkscape:window-x="-4"
     inkscape:window-y="-4"
     inkscape:current-layer="layer4"
     width="500px"
     inkscape:showpageshadow="false"
     borderlayer="true"
     height="3044px"
     showguides="true"
     inkscape:guide-bbox="true" />
  <desc
     id="desc3479">world98</desc>
  <g
     inkscape:groupmode="layer"
     id="layer2"
     inkscape:label="fond"
     style="display:inline">
    <rect
       width="8013.4072"
       height="8368.585"
       ry="0"
       x="0.2313201"
       y="-379.06653"
       style="display:inline;opacity:1;fill:#f4e2ba;fill-opacity:1;stroke:none;stroke-width:8;stroke-miterlimit:4;stroke-dasharray:none;stroke-opacity:1"
       id="rect9088" />
  </g>
  <g
     inkscape:groupmode="layer"
     id="layer1"
     inkscape:label="frontieres"
     style="opacity:1;display:inline">
    <path
       d="M 4916.123,7989.1974 L 4916.257,7857.6757"
       style="display:inline;opacity:1;fill:none;stroke:#000000;stroke-width:8.36820411999999970;stroke-miterlimit:4;stroke-dasharray:none"
       id="path3511"
       sodipodi:nodetypes="cc" />
    <path
       id="path3790"
       style="display:inline;opacity:1;fill:none;stroke:#000000;stroke-width:8.36820411999999970;stroke-miterlimit:4;stroke-dasharray:none"
       d="M 910.96498,7989.4372 L 794.82078,5250.9515 L 1454.879,5295.6126 L 1478.1768,5296.8741"
       sodipodi:nodetypes="cccc" />
    <path
       style="display:inline;opacity:1;fill:none;fill-rule:evenodd;stroke:#000000;stroke-width:8.36820084;stroke-linecap:butt;stroke-linejoin:bevel;stroke-miterlimit:4;stroke-dasharray:8.36820084,8.36820084;stroke-dashoffset:0;stroke-opacity:1"
       d="M 69.43986,3994.1236 L -0.44978029,3987.8173"
       id="path3793"
       sodipodi:nodetypes="cc" />
    <path
       id="path3796"
       style="display:inline;opacity:1;fill:none;stroke:#000000;stroke-width:8.36820411999999970;stroke-miterlimit:4;stroke-dasharray:none"
       d="M 7938.2744,5877.4403 L 8009.9474,5889.3666"
       sodipodi:nodetypes="cc" />
    <path
       style="display:inline;opacity:1;fill:none;stroke:#000000;stroke-width:8.36820411999999970;stroke-miterlimit:4;stroke-dasharray:none"
       d="M 6843.1925,3082.2691 C 6859.6746,3074.5849 6875.2259,3058.7269 6894.8332,3062.7402 C 6921.7589,3070.1398 6948.8414,3058.448 6974.1004,3050.3122 C 6995.9314,3041.4628 7005.4024,3018.2065 7017.2135,2999.5865 C 7045.6812,2954.0903 7079.3988,2912.1013 7107.8979,2866.6099 C 7121.3944,2834.947 7136.5887,2800.1122 7127.102,2765.1368 C 7119.9293,2734.0993 7109.6489,2703.6522 7096.5035,2674.645 C 7080.0531,2640.6478 7058.8532,2608.7841 7046.9584,2572.7081 C 7042.0595,2544.1686 7060.1392,2518.8999 7076.4876,2497.4615 C 7091.0659,2475.5759 7102.2048,2447.9674 7127.8344,2436.8009 C 7147.5942,2430.6239 7170.7846,2443.3585 7188.4934,2429.3803 C 7227.4438,2398.3799 7239.1118,2344.1178 7280.6787,2315.7528 C 7300.4088,2304.328 7320.9308,2288.9583 7325.9759,2265.3327 C 7331.0122,2247.8746 7343.0204,2233.3808 7358.8099,2224.5628 C 7386.3873,2207.1478 7416.0666,2193.3644 7445.2328,2178.8596 C 7500.5389,2152.4194 7557.6952,2127.0073 7604.0665,2085.9735 C 7619.6439,2069.1019 7613.0176,2038.6548 7592.3358,2029.0764 C 7576.4458,2018.637 7558.7988,2004.2612 7558.9049,1983.4184 C 7555.0018,1942.8829 7555.3548,1900.8249 7569.7231,1862.1926 C 7573.5823,1848.9647 7576.3507,1835.0991 7574.8036,1821.2718"
       id="path3799" />
    <path
       id="path3841"
       style="display:inline;opacity:1;fill:none;stroke:#000000;stroke-width:8.36820411999999970;stroke-miterlimit:4;stroke-dasharray:none"
       d="M 804.98268,113.18776 C 835.80658,63.136171 778.93838,6.2045387 806.06998,-43.832929 C 826.17428,-80.897606 866.38488,-104.47637 887.88478,-140.5805 C 931.40178,-213.66901 987.85988,-194.42535 1024.193,-267.21116 C 959.63048,-249.86596 908.84618,-314.93376 900.88438,-370.63572"
       sodipodi:nodetypes="csscs" />
  </g>
  <g
     inkscape:groupmode="layer"
     id="layer4"
     inkscape:label="algerie"
     style="opacity:1;display:inline">
    <path
       d="M 6809.3251,3176.3078 L 5965.8575,3738.9035 L 5847.2314,3683.08 L 5547.1768,3885.44 L 5749.539,4045.9325 L 5777.4512,4150.6014 L 5651.847,4178.513 L 5582.0668,4283.182 L 5463.4404,4366.9171 L 5533.2205,4583.2331 L 5665.8029,4694.8799 L 5616.9569,4827.4607 L 5700.693,4876.3061 L 5756.5171,4987.9529 L 5937.9456,5029.8204 L 5951.9016,5141.4675 L 6028.6598,5239.1586 L 5986.7916,5301.96 L 6000.7476,5385.6951 L 6035.6376,5399.6508 L 6098.4399,5476.4081 L 6175.1982,5490.3641 L 6238.0002,5532.2316 L 6335.6926,5608.989 C 6335.6926,5608.989 6321.7363,5602.0108 6391.5164,5615.9668 C 6426.4065,5622.9446 6445.5961,5629.9227 6456.0632,5635.1561 C 6466.5302,5640.3895 6468.2747,5643.8784 6468.2747,5643.8784 L 6572.9449,5664.8122 L 6621.7909,5762.5033 L 7825.4988,5683.1294 L 7750.485,5563.6322 L 7425.135,5490.3641 L 7270.7464,5513.0423 L 7160.8429,5350.8054 L 7138.1643,5180.7183 L 6882.5944,4801.2933 L 6947.1409,4736.7474 L 7061.4061,4637.3119 L 7055.3003,4512.5815 L 7009.9432,4494.2643 L 6996.8593,4279.693 L 7046.5777,4194.2134 L 7050.939,4085.1832 L 6976.7976,3958.7081 L 6989.8815,3873.2285 L 6996.8593,3545.2657 L 6811.0699,3187.6469 L 6809.3251,3176.3078 z"
       style="opacity:1;fill:#fcf5e3;fill-opacity:1;fill-rule:evenodd;stroke:#000000;stroke-width:8.36820412;stroke-linecap:butt;stroke-linejoin:miter;stroke-miterlimit:4;stroke-dasharray:none;stroke-opacity:1;display:inline"
       id="path2997" />
    <path
       d="M 1132.7096,5027.2039 L 2161.9668,4391.3398 L 1915.1196,3808.6827 L 1341.1778,3913.3516 L 1112.6478,3191.1358 L 936.45288,3166.7131 L 979.19328,3266.1487 L 886.73458,3287.9546 L 822.18798,3259.1706 L 700.94488,3252.1927 L 615.46421,3359.4785 L 518.64423,3340.2892 L 356.40538,3444.0857 L 115.66387,3588.0057 L 50.244967,4180.2575 L 1132.7096,5027.2039 z"
       style="opacity:1;fill:#fcf5e3;fill-opacity:1;fill-rule:evenodd;stroke:#000000;stroke-width:8.36820412;stroke-linecap:butt;stroke-linejoin:miter;stroke-miterlimit:4;stroke-dasharray:none;stroke-opacity:1;display:inline"
       id="path2888" />
    <path
       d="M 4749.9384,7893.3888 L 4723.7709,7137.1557 L 3760.8048,6564.9653 L 3774.7608,5169.3791 L 3691.0247,5085.644 L 3691.0247,4946.0853 L 3579.3764,4806.5269 L 3691.0247,4764.6594 L 3774.7608,4778.615 L 3844.5409,4778.615 L 3886.4091,4708.8358 L 3928.277,4708.8358 L 4039.9253,4625.1007 L 4053.8813,4066.8663 L 4123.6614,3927.3076 L 4039.9253,3159.735 L 4109.7054,2880.6179 L 4082.6656,2583.1836 L 3663.1124,2768.9709 L 3488.6621,2943.4193 L 3251.4095,3362.095 L 2965.311,3717.9697 L 2728.0584,3710.9916 L 2560.586,3759.8373 L 2232.6194,3976.153 L 1995.3667,3773.7929 L 1916.8641,3813.044 L 2161.9668,4391.3398 L 1132.7096,5027.2039 L 3678.8132,7019.4032 L 3705.8527,7099.6494 L 3649.1565,7157.2174 L 3784.3554,7208.6796 L 3862.8582,7220.8908 L 3905.5984,7263.6308 L 3913.449,7321.1988 L 4034.6919,7406.6784 L 4091.3882,7356.9606 L 4141.1066,7370.9163 L 4191.6971,7463.374 L 4219.6093,7478.202 L 4384.465,7507.8584 L 4490.8796,7558.4483 L 4519.6639,7713.7074 L 4526.642,7763.4251 L 4498.7298,7785.231 L 4476.9236,7848.9047 L 4552.8095,7936.1288 L 4749.9384,7893.3888 z"
       style="opacity:1;fill:#fcf5e3;fill-opacity:1;fill-rule:evenodd;stroke:#000000;stroke-width:8.36820412;stroke-linecap:butt;stroke-linejoin:miter;stroke-miterlimit:4;stroke-dasharray:none;stroke-opacity:1;display:inline"
       id="path2931" />
    <path
       d="M 5560.2603,3895.9068 L 5107.5616,3913.3516 L 4737.7269,3878.4619 L 4437.6723,3641.2124 L 4094.8771,3663.0183 L 4123.6614,3927.3076 L 4053.8813,4066.8663 L 4039.9253,4625.1007 L 3928.277,4708.8358 L 3886.4091,4708.8358 L 3844.5409,4778.615 L 3774.7608,4778.615 L 3691.0247,4764.6594 L 3579.3764,4806.5269 L 3691.0247,4946.0853 L 3691.0247,5085.644 L 3774.7608,5169.3791 L 3760.8048,6564.9653 L 4723.7709,7137.1557 L 4749.9384,7893.3888 L 5548.0488,7720.6852 L 6198.7488,7101.3939 L 7949.3583,5880.2558 L 7825.4988,5683.1294 L 6621.7909,5762.5033 L 6572.9449,5664.8122 L 6468.2747,5643.8784 C 6468.2747,5643.8784 6466.5302,5640.3895 6456.0632,5635.1561 C 6445.5961,5629.9227 6426.4065,5622.9446 6391.5164,5615.9668 C 6321.7363,5602.0108 6335.6926,5608.989 6335.6926,5608.989 L 6238.0002,5532.2316 L 6175.1982,5490.3641 L 6098.4399,5476.4081 L 6035.6376,5399.6508 L 6000.7476,5385.6951 L 5986.7916,5301.96 L 6028.6598,5239.1586 L 5951.9016,5141.4675 L 5937.9456,5029.8204 L 5756.5171,4987.9529 L 5700.693,4876.3061 L 5616.9569,4827.4607 L 5665.8029,4694.8799 L 5533.2205,4583.2331 L 5463.4404,4366.9171 L 5582.0668,4283.182 L 5651.847,4178.513 L 5777.4512,4150.6014 L 5749.539,4045.9325 L 5560.2603,3895.9068 z"
       style="opacity:1;fill:#cab982;fill-opacity:1;fill-rule:evenodd;stroke:#000000;stroke-width:8.36820412;stroke-linecap:butt;stroke-linejoin:miter;stroke-miterlimit:4;stroke-dasharray:none;stroke-opacity:1;display:inline"
       id="path3002" />
    <path
       d="M 5147.6853,1796.4217 L 5107.5616,1865.3288 L 5131.9846,2047.6272 L 5053.4822,2229.9258 L 4929.6224,2279.6436 L 4895.6044,2343.317 L 4914.794,2378.2068 L 4831.0579,2501.1929 L 4717.6652,3330.6945 L 4623.462,3390.007 L 4569.3823,3562.7106 L 4535.3643,3562.7106 L 4438.5443,3642.0845 L 4737.7269,3878.4619 L 5107.5616,3913.3516 L 5560.2603,3895.9068 L 5547.1768,3885.44 L 5847.2314,3683.08 L 5965.8575,3738.9035 L 6809.3251,3176.3078 L 6804.0917,3130.951 L 6846.832,3081.2335 L 6819.7921,3045.4714 L 6616.5575,2371.2289 L 5882.1214,2407.8631 L 5763.4953,2220.3311 L 5635.2742,1825.2057 L 5147.6853,1796.4217 z"
       style="opacity:1;fill:#fcf5e3;fill-opacity:1;fill-rule:evenodd;stroke:#000000;stroke-width:8.36820412;stroke-linecap:butt;stroke-linejoin:miter;stroke-miterlimit:4;stroke-dasharray:none;stroke-opacity:1;display:inline"
       id="path3012" />
    <path
       d="M 5147.6853,1796.4217 L 5635.2742,1825.2057 L 5763.4953,2220.3311 L 5882.1214,2407.8631 L 6616.5575,2371.2289 L 6605.2184,2333.7223 L 6462.1689,2227.309 L 6346.1593,2154.9129 L 6316.5029,1996.1649 L 6269.4013,1909.8132 L 6151.6473,1899.3462 L 6112.3959,1862.712 L 6111.5235,1790.316 L 6086.2284,1727.5146 L 6047.8492,1624.5901 L 6061.8054,1517.3047 L 6061.8054,1505.0932 L 5936.2011,1505.0932 L 5876.8877,1470.2034 L 5813.2134,1470.2034 L 5739.072,1416.1246 L 5689.3539,1416.1246 L 5570.7274,1381.2349 L 5521.8814,1386.4683 L 5467.8017,1401.2966 L 5418.0833,1381.2349 L 5245.3774,1366.4069 L 5200.8927,1421.358 L 5254.9724,1464.97 L 5275.0341,1539.1105 L 5265.4394,1633.3127 L 5235.7827,1648.1408 L 5147.6853,1796.4217 z"
       style="opacity:1;fill:#fcf5e3;fill-opacity:1;fill-rule:evenodd;stroke:#000000;stroke-width:8.36820412;stroke-linecap:butt;stroke-linejoin:miter;stroke-miterlimit:4;stroke-dasharray:none;stroke-opacity:1;display:inline"
       id="path3007" />
    <path
       d="M 5127.6236,2058.9666 L 4860.7143,1983.0813 L 4736.8545,2008.3764 L 4693.2421,1983.0813 L 4673.1801,2012.7377 L 4599.0387,2017.9711 L 4544.9593,2092.1116 L 4455.9895,2067.6889 L 4172.5077,2119.1511 L 4172.5077,2120.0232 L 4172.5077,2259.5819 L 4207.3978,2350.2951 L 4179.4856,2385.1846 L 4144.5955,2468.92 L 4172.5077,2503.8095 L 4088.7713,2580.5668 L 4082.6656,2583.1836 L 4109.7054,2880.6179 L 4039.9253,3159.735 L 4094.8771,3663.0183 L 4437.6723,3641.2124 L 4438.5443,3642.0845 L 4535.3643,3562.7106 L 4569.3823,3562.7106 L 4623.462,3390.007 L 4717.6652,3330.6945 L 4831.0579,2501.1929 L 4914.794,2378.2068 L 4895.6044,2343.317 L 4929.6224,2279.6436 L 5053.4822,2229.9258 L 5127.6236,2058.9666 z"
       style="opacity:1;fill:#fcf5e3;fill-opacity:1;fill-rule:evenodd;stroke:#000000;stroke-width:8.36820412;stroke-linecap:butt;stroke-linejoin:miter;stroke-miterlimit:4;stroke-dasharray:none;stroke-opacity:1;display:inline"
       id="path3017" />
    <path
       d="M 3199.9467,947.73092 L 3222.6252,925.05268 L 3237.4536,885.80195 L 3328.1678,829.10633 L 3360.441,816.89483 L 3349.1019,771.53834 L 3319.4452,778.51616 L 3256.6432,718.33165 L 3193.8409,805.5557 L 3110.1048,795.08865 L 2982.7561,850.91219 L 3028.1132,898.88553 L 3028.1132,912.84149 L 3146.7393,905.86335 L 3181.6294,947.73092 L 3199.9467,947.73092 z"
       style="opacity:1;fill:#fcf5e3;fill-opacity:1;fill-rule:evenodd;stroke:#000000;stroke-width:8.36820412;stroke-linecap:butt;stroke-linejoin:miter;stroke-miterlimit:4;stroke-dasharray:none;stroke-opacity:1;display:inline"
       id="path3106" />
    <path
       d="M 3359.5689,815.15037 L 3378.7583,823.87265 L 3425.8601,818.63928 L 3436.3269,822.12819 L 3446.7939,839.57307 L 3459.0054,841.31752 L 3492.151,813.40591 L 3539.2526,795.96104 L 3556.6978,731.41522 L 3600.3105,693.03656 L 3607.2883,677.33614 L 3652.6454,593.601 L 3661.368,570.92276 C 3661.368,570.92276 3653.0339,561.78939 3649.1565,556.96679 L 3627.3503,560.45602 L 3456.3889,660.76365 L 3391.8422,761.07129 L 3349.1019,771.53834 L 3359.5689,815.15037 z"
       style="opacity:1;fill:#fcf5e3;fill-opacity:1;fill-rule:evenodd;stroke:#000000;stroke-width:8.36820412;stroke-linecap:butt;stroke-linejoin:miter;stroke-miterlimit:4;stroke-dasharray:none;stroke-opacity:1;display:inline"
       id="path3111" />
    <path
       d="M 3539.2526,1108.2233 C 3548.6722,1096.8067 3552.5185,1095.4676 3562.8036,1082.0561 C 3590.0615,1046.5124 3616.0109,1010.5322 3616.0109,1010.5322 L 3659.6235,1024.4881 L 3685.791,996.5766 L 3685.791,951.22015 L 3673.5795,951.22015 L 3635.2005,935.51973 L 3591.5879,921.56377 L 3525.2967,888.41879 L 3490.4066,874.46282 L 3483.4288,820.38374 L 3459.0054,841.31752 L 3446.7939,839.57307 L 3436.3269,822.12819 L 3425.8601,818.63928 L 3378.7583,823.87265 L 3359.5689,815.15037 L 3360.441,816.89483 L 3328.1678,829.10633 L 3237.4536,885.80195 L 3222.6252,925.05268 L 3199.9467,947.73092 L 3202.5635,947.73092 L 3321.1896,1003.5545 L 3335.1459,1066.3557 L 3383.9919,1080.3117 L 3432.838,1087.2895 L 3460.7502,1108.2233 L 3537.5082,1108.2233 L 3539.2526,1108.2233 z"
       style="opacity:1;fill:#fcf5e3;fill-opacity:1;fill-rule:evenodd;stroke:#000000;stroke-width:8.36820412;stroke-linecap:butt;stroke-linejoin:miter;stroke-miterlimit:4;stroke-dasharray:none;stroke-opacity:1;display:inline"
       id="path3116" />
    <path
       d="M 4843.2694,1986.5703 L 4818.8464,1894.9852 L 4798.7844,1865.3288 L 4717.6652,1808.6332 L 4638.2901,1737.1093 L 4611.2505,1695.2417 L 4562.4042,1650.7576 L 4492.6241,1541.7274 L 4480.4125,1479.7981 L 4414.1213,1455.3754 L 4374.87,1497.243 L 4372.2534,1519.9212 L 4319.9182,1522.538 L 4307.7067,1615.8678 L 4238.7989,1610.6345 L 4236.1821,1583.5949 C 4236.1821,1583.5949 4241.1418,1524.8555 4251.0105,1519.9212 C 4255.9445,1517.4544 4253.8388,1510.6441 4250.1381,1505.0932 C 4246.4373,1499.5422 4241.4155,1494.6261 4241.4155,1494.6264 L 4211.7591,1470.2034 L 4211.7591,1418.7412 L 4175.1243,1393.4464 L 4179.4856,1329.7727 L 4199.5476,1309.7113 L 4202.1641,1285.2882 L 4189.9526,1282.6717 L 4169.8909,1278.3104 L 4160.2962,1282.6717 L 4145.4679,1314.9446 L 4113.1947,1324.5393 L 4056.4981,1369.0234 L 3994.5682,1374.2571 L 3960.5505,1413.5078 L 3950.0835,1467.5869 L 3905.5984,1497.243 L 3842.7964,1526.0269 L 3879.431,1582.7226 L 3991.0793,1638.5461 L 4109.7054,1826.9502 L 4060.8594,1875.7959 L 4081.7935,1938.5972 L 4095.7495,1973.4867 L 4130.6395,1994.4205 L 4172.5077,2119.1511 L 4455.9895,2067.6889 L 4544.9593,2092.1116 L 4599.0387,2017.9711 L 4673.1801,2012.7377 L 4693.2421,1983.0813 L 4736.8545,2008.3764 L 4843.2694,1986.5703 z"
       style="opacity:1;fill:#fcf5e3;fill-opacity:1;fill-rule:evenodd;stroke:#000000;stroke-width:8.36820412;stroke-linecap:butt;stroke-linejoin:miter;stroke-miterlimit:4;stroke-dasharray:none;stroke-opacity:1;display:inline"
       id="path3121" />
    <path
       d="M 4856.353,1489.3927 L 4852.8641,1443.1642 L 4828.4411,1432.6971 L 4804.0181,1422.2304 L 4793.551,1390.8296 L 4797.04,1369.8958 L 4769.128,1331.5171 L 4748.1939,1254.7598 L 4730.7487,1237.3152 L 4660.9686,1237.3152 L 4653.9908,1219.8704 L 4643.5237,1198.9366 L 4643.5237,1157.069 L 4605.1445,1122.1793 L 4584.2107,1087.2895 L 4650.5016,1031.466 L 4671.4357,1003.5545 L 4681.9027,937.26419 L 4570.2544,825.61711 L 4528.3865,804.68332 L 4510.9413,836.08416 L 4503.9635,850.04012 L 4444.6501,850.04012 L 4423.7163,811.66146 L 4399.2933,811.66146 L 4399.2933,891.9077 L 4367.8921,902.37444 L 4360.914,919.81931 L 4336.491,947.73092 L 4312.068,951.22015 L 4280.6668,958.19797 L 4270.1998,951.22015 L 4259.7327,933.77527 L 4210.8867,947.73092 L 4186.4637,947.73092 L 4179.4856,954.70906 L 4182.9748,979.13176 L 4182.9748,993.0877 L 4179.4856,1020.9992 L 4207.3978,1020.9992 L 4221.3538,1038.4441 L 4221.3538,1059.3779 L 4242.2879,1076.8228 L 4266.7109,1094.2676 L 4298.112,1118.6903 L 4294.6228,1132.646 C 4294.6228,1132.646 4287.645,1130.9015 4280.6668,1130.9015 C 4273.689,1130.9015 4266.7109,1132.646 4266.7109,1139.6241 C 4266.7109,1153.5798 4263.222,1181.4917 4263.222,1181.4917 L 4242.2879,1216.3811 L 4221.3538,1237.3152 L 4200.4197,1240.8041 L 4186.4637,1275.6936 L 4182.9748,1280.9273 L 4189.9526,1282.6717 L 4202.1641,1285.2882 L 4199.5476,1309.7113 L 4179.4856,1329.7727 L 4175.1243,1393.4464 L 4211.7591,1418.7412 L 4211.7591,1470.2034 L 4241.4155,1494.6264 C 4241.4155,1494.6261 4246.4373,1499.5422 4250.1381,1505.0932 C 4253.8388,1510.6441 4255.9445,1517.4544 4251.0105,1519.9212 C 4241.1418,1524.8555 4236.1821,1583.5949 4236.1821,1583.5949 L 4238.7989,1610.6345 L 4307.7067,1615.8678 L 4319.9182,1522.538 L 4372.2534,1519.9212 L 4374.87,1497.243 L 4414.1213,1455.3754 L 4480.4125,1479.7981 L 4492.6241,1541.7274 L 4562.4042,1650.7576 L 4611.2505,1695.2417 L 4638.2901,1737.1093 L 4717.6652,1808.6332 L 4798.7844,1865.3288 L 4818.8464,1894.9852 L 4843.2694,1986.5703 L 4860.7143,1983.0813 L 5127.6236,2058.9666 L 5131.9846,2047.6272 L 5107.5616,1865.3288 L 5190.4256,1724.8981 L 4959.2788,1628.0794 L 4899.9657,1598.423 L 4899.9657,1514.6878 L 4865.948,1505.0932 L 4851.1197,1490.2651 L 4856.353,1489.3927 z"
       style="opacity:1;fill:#fcf5e3;fill-opacity:1;fill-rule:evenodd;stroke:#000000;stroke-width:8.36820412;stroke-linecap:butt;stroke-linejoin:miter;stroke-miterlimit:4;stroke-dasharray:none;stroke-opacity:1;display:inline"
       id="path3126" />
    <path
       d="M 4185.5913,948.60331 L 4176.869,942.49755 L 4176.869,918.07486 L 4169.8909,910.22465 L 4147.2123,919.81931 L 4120.1725,918.07486 L 4086.1548,918.07486 L 4048.6479,910.22465 L 4004.1632,910.22465 L 3974.5065,900.62998 L 3925.6605,885.80195 L 3893.3869,868.35706 L 3863.7305,856.14556 L 3836.6907,861.37924 L 3812.2677,870.9739 L 3779.9941,868.35706 L 3732.8926,900.62998 L 3716.3198,907.60781 L 3668.3461,949.47569 L 3673.5795,951.22015 L 3685.791,951.22015 L 3685.791,996.5766 L 3659.6235,1024.4881 L 3616.0109,1010.5322 C 3616.0109,1010.5322 3590.0615,1046.5124 3562.8036,1082.0561 C 3552.5185,1095.4676 3548.6722,1096.8067 3539.2526,1108.2233 L 3607.2883,1108.2233 L 3635.2005,1143.113 L 3642.1783,1157.069 L 3600.3105,1209.4033 L 3680.5576,1345.4731 L 3656.1346,1366.4069 L 3732.8926,1394.3185 L 3732.8926,1485.0318 L 3816.629,1485.0318 L 3842.7964,1526.0269 L 3905.5984,1497.243 L 3950.0835,1467.5869 L 3960.5505,1413.5078 L 3994.5682,1374.2571 L 4056.4981,1369.0234 L 4113.1947,1324.5393 L 4145.4679,1314.9446 L 4160.2962,1282.6717 L 4169.8909,1278.3104 L 4182.9748,1280.9273 L 4186.4637,1275.6936 L 4200.4197,1240.8041 L 4221.3538,1237.3152 L 4242.2879,1216.3811 L 4263.222,1181.4917 C 4263.222,1181.4917 4266.7109,1153.5798 4266.7109,1139.6241 C 4266.7109,1132.646 4273.689,1130.9015 4280.6668,1130.9015 C 4287.645,1130.9015 4294.6228,1132.646 4294.6228,1132.646 L 4298.112,1118.6903 L 4266.7109,1094.2676 L 4242.2879,1076.8228 L 4221.3538,1059.3779 L 4221.3538,1038.4441 L 4207.3978,1020.9992 L 4179.4856,1020.9992 L 4182.9748,993.0877 L 4182.9748,979.13176 L 4179.4856,954.70906 L 4185.5913,948.60331 z"
       style="opacity:1;fill:#fcf5e3;fill-opacity:1;fill-rule:evenodd;stroke:#000000;stroke-width:8.36820412;stroke-linecap:butt;stroke-linejoin:miter;stroke-miterlimit:4;stroke-dasharray:none;stroke-opacity:1;display:inline"
       id="path3131" />
    <path
       d="M 3825.3513,865.74022 L 3821.8623,846.55089 L 3831.457,814.27798 L 3863.7305,816.89483 L 3886.4091,796.83342 L 3898.6206,776.77171 L 3861.1137,760.19922 C 3861.1137,760.19922 3829.6868,722.54326 3814.8845,720.0761 C 3800.0819,717.60895 3698.8749,673.84723 3698.8749,673.84723 L 3696.2581,624.12945 L 3688.4078,621.51292 L 3658.7511,626.74629 C 3658.7511,626.74629 3654.3644,626.5966 3639.5618,624.12945 C 3639.2568,624.07861 3635.6533,625.00121 3635.2005,625.00183 L 3607.2883,677.33614 L 3600.3105,693.03656 L 3556.6978,731.41522 L 3539.2526,795.96104 L 3492.151,813.40591 L 3483.4288,820.38374 L 3490.4066,874.46282 L 3525.2967,888.41879 L 3591.5879,921.56377 L 3635.2005,935.51973 L 3668.3461,949.47569 L 3716.3198,907.60781 L 3732.8926,900.62998 L 3779.9941,868.35706 L 3812.2677,870.9739 L 3825.3513,865.74022 z"
       style="opacity:1;fill:#fcf5e3;fill-opacity:1;fill-rule:evenodd;stroke:#000000;stroke-width:8.36820412;stroke-linecap:butt;stroke-linejoin:miter;stroke-miterlimit:4;stroke-dasharray:none;stroke-opacity:1;display:inline"
       id="path3136" />
    <path
       d="M 5146.813,816.89483 C 5137.0532,814.90748 5125.0068,811.66146 5125.0068,811.66146 L 5095.3501,779.38855 L 5070.055,779.38855 L 5040.3983,779.38855 L 5008.9972,794.21658 L 4959.2788,788.98321 L 4956.6622,767.17704 L 4981.0852,749.73217 L 4983.7021,740.1375 L 4971.4903,722.69263 L 4954.0454,713.09796 L 4917.4109,725.30947 L 4865.948,717.45926 C 4865.948,717.45926 4816.5032,707.8646 4806.6349,707.8646 C 4801.7006,707.8646 4800.7843,712.01407 4801.4012,715.7148 C 4802.0182,719.41554 4804.0181,722.69263 4804.0181,722.69263 L 4798.7844,776.77171 L 4766.5112,776.77171 L 4739.4713,776.77171 L 4697.6034,754.96585 L 4658.3521,745.37119 L 4640.9069,760.19922 L 4626.0786,794.21658 L 4621.7173,836.08416 L 4611.2505,833.46731 L 4584.2107,806.42809 L 4569.3823,809.04462 L 4561.5321,821.25612 L 4570.2544,825.61711 L 4681.9027,937.26419 L 4671.4357,1003.5545 L 4650.5016,1031.466 L 4584.2107,1087.2895 L 4605.1445,1122.1793 L 4643.5237,1157.069 L 4643.5237,1198.9366 L 4653.9908,1219.8704 L 4660.9686,1237.3152 L 4730.7487,1237.3152 L 4748.1939,1254.7598 L 4769.128,1331.5171 L 4797.04,1369.8958 L 4793.551,1390.8296 L 4804.0181,1422.2304 L 4828.4411,1432.6971 L 4852.8641,1443.1642 L 4856.353,1489.3927 L 4909.5607,1475.4371 L 4870.3093,1445.7807 L 4845.886,1347.2175 L 4944.4507,1243.4207 L 5038.6539,1223.3593 L 5102.3282,1223.3593 L 5137.2183,1198.9366 L 5146.813,1109.9677 L 5077.9052,1070.717 L 5043.0152,1070.717 L 5087.4999,1026.2326 L 5087.4999,942.49755 L 5131.9846,922.43615 L 5171.236,922.43615 L 5191.298,927.66952 L 5254.9724,873.59043 L 5206.126,853.52903 C 5206.126,853.52903 5211.0349,848.86836 5191.298,843.93436 C 5171.5614,839.00006 5152.0466,823.87265 5152.0466,823.87265 L 5146.813,818.63928 L 5146.813,816.89483 z"
       style="opacity:1;fill:#fcf5e3;fill-opacity:1;fill-rule:evenodd;stroke:#000000;stroke-width:8.36820412;stroke-linecap:butt;stroke-linejoin:miter;stroke-miterlimit:4;stroke-dasharray:none;stroke-opacity:1;display:inline"
       id="path3141" />
    <path
       d="M 4216.1204,757.58238 L 4169.0185,757.58238 L 4151.5736,750.60455 L 4073.0709,762.81575 L 4045.159,775.02725 L 4022.4804,755.83792 L 4005.0352,752.34901 C 4005.0352,752.34901 3991.0793,748.8601 3984.1011,748.8601 C 3977.1233,748.8601 3971.8896,748.8601 3971.8896,748.8601 L 3952.7003,710.48144 L 3940.4885,710.48144 L 3928.277,715.7148 L 3924.7881,736.64859 L 3905.5984,755.83792 C 3905.5984,755.83792 3895.2911,764.86083 3887.2812,771.53834 L 3898.6206,776.77171 L 3886.4091,796.83342 L 3863.7305,816.89483 L 3831.457,814.27798 L 3821.8623,846.55089 L 3825.3513,865.74022 L 3836.6907,861.37924 L 3863.7305,856.14556 L 3893.3869,868.35706 L 3925.6605,885.80195 L 3974.5065,900.62998 L 4004.1632,910.22465 L 4048.6479,910.22465 L 4086.1548,918.07486 L 4120.1725,918.07486 L 4147.2123,919.81931 L 4169.8909,910.22465 L 4171.6354,912.84149 L 4176.869,907.60781 L 4172.5077,883.18511 L 4147.2123,858.7624 L 4133.2564,843.93436 L 4142.851,833.46731 L 4176.869,806.42809 L 4214.3756,784.62192 L 4214.3756,761.94367 L 4216.1204,757.58238 z"
       style="opacity:1;fill:#fcf5e3;fill-opacity:1;fill-rule:evenodd;stroke:#000000;stroke-width:8.36820412;stroke-linecap:butt;stroke-linejoin:miter;stroke-miterlimit:4;stroke-dasharray:none;stroke-opacity:1;display:inline"
       id="path3151" />
    <path
       d="M 3964.9118,529.05518 L 3963.167,532.54409 L 3936.9996,551.73342 L 3949.2111,567.43384 L 3949.2111,588.36763 L 3947.4666,614.53478 L 3956.1892,654.6579 L 3992.8237,703.50361 L 3994.5682,738.39305 L 3992.8237,750.60455 C 3998.1409,751.59148 4005.0352,752.34901 4005.0352,752.34901 L 4022.4804,755.83792 L 4045.159,775.02725 L 4073.0709,762.81575 L 4151.5736,750.60455 L 4169.0185,757.58238 L 4216.1204,757.58238 L 4229.204,722.69263 L 4263.222,688.67526 L 4285.9005,665.99702 L 4295.4952,644.19116 L 4278.05,631.10759 L 4256.2438,621.51292 L 4248.3936,614.53478 L 4256.2438,606.68457 L 4295.4952,591.85654 L 4312.9401,582.26188 L 4319.9182,570.05068 C 4319.9182,570.05068 4323.0459,565.90089 4324.2795,562.20047 C 4325.5131,558.49974 4324.8525,555.22234 4319.9182,555.22234 C 4310.0499,555.22234 4271.0722,544.7556 4271.0722,544.7556 L 4251.8825,536.90539 L 4249.2657,537.77746 L 4195.1863,541.26669 L 4135.8732,548.24451 L 4067.8375,536.03301 L 4020.7357,536.03301 L 3994.5682,562.20047 L 3985.8456,558.71125 L 3964.9118,529.05518 z"
       style="opacity:1;fill:#fcf5e3;fill-opacity:1;fill-rule:evenodd;stroke:#000000;stroke-width:8.36820412;stroke-linecap:butt;stroke-linejoin:miter;stroke-miterlimit:4;stroke-dasharray:none;stroke-opacity:1;display:inline"
       id="path3161" />
    <path
       style="opacity:1;fill:#fcf5e3;fill-opacity:1;fill-rule:evenodd;stroke:#000000;stroke-width:8.36820412;stroke-linecap:butt;stroke-linejoin:miter;stroke-miterlimit:4;stroke-dasharray:none;stroke-opacity:1;display:inline"
       d="M 4405.6212,380.22694 C 4388.2777,398.751 4335.9553,453.43416 4298.3342,464.83416 C 4292.7738,466.5193 4288.2826,465.04409 4283.5059,464.83416 C 4259.2702,463.77035 4241.1409,444.28886 4187.5583,448.26167 C 4169.6976,449.58594 4147.5619,453.12882 4120.3947,461.34525 C 4080.8464,473.30665 4038.0418,478.47349 3996.5348,482.27903 L 3972.1118,513.67987 L 3965.134,529.38029 L 3986.0678,559.03635 L 3994.7904,562.52527 L 4020.9578,536.35811 L 4068.0597,536.35811 L 4136.0954,548.56962 L 4195.4085,541.59148 L 4249.4879,538.10257 L 4252.1047,537.2305 L 4248.6158,535.48573 L 4259.9549,521.53008 C 4269.3622,518.24232 4286.4588,512.2875 4287.8672,511.93541 C 4294.8453,510.19096 4322.7572,501.46836 4322.7572,501.46836 L 4364.6251,466.57893 L 4389.0484,449.13405 L 4411.727,431.68918 L 4415.2159,431.68918 C 4409.857,425.43374 4405.6212,417.93154 4405.6212,409.01094 L 4405.6212,380.22694 z"
       id="path3156" />
    <path
       d="M 3992.8237,750.60455 L 3994.5682,738.39305 L 3992.8237,703.50361 L 3956.1892,654.6579 L 3947.4666,614.53478 L 3949.2111,588.36763 L 3949.2111,567.43384 L 3936.9996,551.73342 L 3963.167,532.54409 L 3971.8896,513.35476 L 3996.3127,481.95424 C 3910.2622,489.84399 3834.0738,486.31522 3834.0738,486.31522 L 3670.0906,553.47788 L 3649.1565,556.96679 C 3653.0339,561.78939 3661.368,570.92276 3661.368,570.92276 L 3652.6454,593.601 L 3635.2005,625.00183 C 3635.6533,625.00121 3639.2568,624.07861 3639.5618,624.12945 C 3654.3644,626.5966 3658.7511,626.74629 3658.7511,626.74629 L 3688.4078,621.51292 L 3696.2581,624.12945 L 3698.8749,673.84723 C 3698.8749,673.84723 3800.0819,717.60895 3814.8845,720.0761 C 3829.6868,722.54326 3861.1137,760.19922 3861.1137,760.19922 L 3887.2812,771.53834 C 3895.2911,764.86083 3905.5984,755.83792 3905.5984,755.83792 L 3924.7881,736.64859 L 3928.277,715.7148 L 3940.4885,710.48144 L 3952.7003,710.48144 L 3971.8896,748.8601 C 3971.8896,748.8601 3977.1233,748.8601 3984.1011,748.8601 C 3987.0246,748.8601 3988.9903,749.89284 3992.8237,750.60455 z"
       style="opacity:1;fill:#fcf5e3;fill-opacity:1;fill-rule:evenodd;stroke:#000000;stroke-width:8.36820412;stroke-linecap:butt;stroke-linejoin:miter;stroke-miterlimit:4;stroke-dasharray:none;stroke-opacity:1;display:inline"
       id="path3146" />
    <path
       d="M 4323.4071,563.07255 C 4321.9783,566.31763 4319.9182,570.05068 4319.9182,570.05068 L 4312.9401,582.26188 L 4295.4952,591.85654 L 4256.2438,606.68457 L 4248.3936,614.53478 L 4256.2438,621.51292 L 4278.05,631.10759 L 4295.4952,644.19116 L 4285.9005,665.99702 L 4263.222,688.67526 L 4229.204,722.69263 L 4214.3756,761.94367 L 4214.3756,784.62192 L 4176.869,806.42809 L 4142.851,833.46731 L 4133.2564,843.93436 L 4147.2123,858.7624 L 4172.5077,883.18511 L 4176.869,907.60781 L 4171.6354,912.84149 L 4176.869,918.07486 L 4176.869,942.49755 L 4185.5913,948.60331 L 4186.4637,947.73092 L 4210.8867,947.73092 L 4259.7327,933.77527 L 4270.1998,951.22015 L 4280.6668,958.19797 L 4312.068,951.22015 L 4336.491,947.73092 L 4360.914,919.81931 L 4367.8921,902.37444 L 4399.2933,891.9077 L 4399.2933,811.66146 L 4423.7163,811.66146 L 4444.6501,850.04012 L 4503.9635,850.04012 L 4510.9413,836.08416 L 4528.3865,804.68332 L 4561.5321,821.25612 L 4569.3823,809.04462 L 4584.2107,806.42809 L 4611.2505,833.46731 L 4621.7173,836.08416 L 4626.0786,794.21658 L 4640.9069,760.19922 L 4649.6295,753.22108 L 4633.0567,719.20372 L 4624.3341,687.80319 L 4627.823,640.70194 C 4627.823,640.70225 4645.2682,551.73342 4636.5456,548.24451 C 4628.2018,544.90686 4545.479,499.20048 4537.9812,495.03782 L 4533.6199,494.16543 L 4509.1969,509.86585 L 4477.7957,530.79964 L 4451.6282,549.98897 L 4435.9278,562.20047 L 4420.2271,562.20047 L 4397.5485,544.7556 L 4381.8481,544.7556 L 4353.9362,572.66721 L 4341.7244,574.41167 L 4323.4071,563.07255 z"
       style="opacity:1;fill:#fcf5e3;fill-opacity:1;fill-rule:evenodd;stroke:#000000;stroke-width:8.36820412;stroke-linecap:butt;stroke-linejoin:miter;stroke-miterlimit:4;stroke-dasharray:none;stroke-opacity:1;display:inline"
       id="path3178" />
    <path
       d="M 4323.4071,563.07255 L 4341.7244,574.41167 L 4353.9362,572.66721 L 4381.8481,544.7556 L 4397.5485,544.7556 L 4420.2271,562.20047 L 4435.9278,562.20047 L 4451.6282,549.98897 L 4477.7957,530.79964 L 4509.1969,509.86585 L 4533.6199,494.16543 L 4537.9812,495.03782 C 4537.641,494.84891 4533.6199,492.42098 4533.6199,492.42098 L 4580.7214,483.6987 L 4596.4222,476.72056 L 4610.3781,454.04232 L 4617.3563,433.10853 C 4617.3563,433.10853 4627.823,422.64179 4619.1007,419.15288 C 4610.3781,415.66397 4554.554,412.17474 4554.554,412.17474 L 4510.9413,422.64179 L 4484.7738,433.10853 L 4411.5048,431.36407 L 4388.8263,448.80895 L 4364.4029,466.25382 L 4322.535,501.14357 C 4322.535,501.14357 4294.6228,509.86585 4287.645,511.61031 C 4286.2366,511.9624 4269.1397,517.91721 4259.7327,521.20497 L 4248.3936,535.16094 L 4271.0722,544.7556 C 4271.0722,544.7556 4310.0499,555.22234 4319.9182,555.22234 C 4324.8525,555.22234 4325.5131,558.49974 4324.2795,562.20047 C 4324.1166,562.68907 4323.6246,562.57861 4323.4071,563.07255 z"
       style="opacity:1;fill:#fcf5e3;fill-opacity:1;fill-rule:evenodd;stroke:#000000;stroke-width:8.36820412;stroke-linecap:butt;stroke-linejoin:miter;stroke-miterlimit:4;stroke-dasharray:none;stroke-opacity:1;display:inline"
       id="path3173" />
    <path
       d="M 4910.4327,578.77296 L 4886.0097,598.83437 L 4828.4411,672.10278 L 4807.507,707.8646 C 4818.334,708.13196 4865.948,717.45926 4865.948,717.45926 L 4917.4109,725.30947 L 4954.0454,713.09796 L 4971.4903,722.69263 L 4983.7021,740.1375 L 4981.0852,749.73217 L 4956.6622,767.17704 L 4959.2788,788.98321 L 5008.9972,794.21658 L 5040.3983,779.38855 L 5070.055,779.38855 L 5095.3501,779.38855 L 5125.0068,811.66146 C 5125.0068,811.66146 5137.0532,814.90748 5146.813,816.89483 L 5152.0466,788.98321 L 5171.236,784.62192 L 5171.236,734.90414 L 5206.126,695.6534 L 5186.0643,660.76365 L 5215.721,636.34096 L 5211.3597,626.74629 L 5156.4079,616.27924 L 5156.4079,602.32359 L 5137.2183,587.49524 L 5087.4999,587.49524 L 5053.4822,557.83918 L 5018.5921,543.01114 L 4994.1688,602.32359 L 4929.6224,621.51292 L 4909.5607,582.26188 L 4910.4327,578.77296 z"
       style="opacity:1;fill:#fcf5e3;fill-opacity:1;fill-rule:evenodd;stroke:#000000;stroke-width:8.36820412;stroke-linecap:butt;stroke-linejoin:miter;stroke-miterlimit:4;stroke-dasharray:none;stroke-opacity:1;display:inline"
       id="path3188" />
    <path
       d="M 4618.2283,423.51386 C 4617.9327,427.72799 4617.3563,433.10853 4617.3563,433.10853 L 4610.3781,454.04232 L 4596.4222,476.72056 L 4580.7214,483.6987 L 4533.6199,492.42098 C 4533.6199,492.42098 4627.823,544.7556 4636.5456,548.24451 C 4645.2682,551.73342 4627.823,640.70225 4627.823,640.70194 L 4624.3341,687.80319 L 4633.0567,719.20372 L 4649.6295,753.22108 L 4658.3521,745.37119 L 4697.6034,754.96585 L 4739.4713,776.77171 L 4766.5112,776.77171 L 4798.7844,776.77171 L 4804.0181,722.69263 C 4804.0181,722.69263 4802.0182,719.41554 4801.4012,715.7148 C 4800.7843,712.01407 4801.7006,707.8646 4806.6349,707.8646 C 4806.7765,707.8646 4807.3495,707.86083 4807.507,707.8646 L 4828.4411,672.10278 L 4886.0097,598.83437 L 4910.4327,578.77296 L 4920.0274,532.54409 L 4929.6224,522.07736 C 4886.4807,520.62317 4733.3198,515.5125 4729.0043,513.35476 C 4724.0703,510.88792 4715.1105,500.69451 4708.9426,493.29336 C 4702.7747,485.89221 4684.5196,454.04232 4684.5196,454.04232 L 4674.0525,442.70319 C 4674.0525,442.70319 4659.7972,425.61983 4654.8629,424.38625 C 4649.9286,423.15267 4638.2901,418.2805 4638.2901,418.2805 L 4618.2283,423.51386 z"
       style="opacity:1;fill:#fcf5e3;fill-opacity:1;fill-rule:evenodd;stroke:#000000;stroke-width:8.36820412;stroke-linecap:butt;stroke-linejoin:miter;stroke-miterlimit:4;stroke-dasharray:none;stroke-opacity:1;display:inline"
       id="path3193" />
    <path
       d="M 4676.6693,445.32004 L 4684.5196,454.04232 C 4684.5196,454.04232 4702.7747,485.89221 4708.9426,493.29336 C 4715.1105,500.69451 4724.0703,510.88792 4729.0043,513.35476 C 4733.3198,515.5125 4886.4807,520.62317 4929.6224,522.07736 L 4954.0454,493.29336 L 4994.1688,433.98091 L 4979.3408,404.32453 L 4998.5301,379.90184 L 4989.8078,344.14002 L 4797.9123,341.52317 L 4794.4234,370.30717 L 4781.3395,380.77422 L 4762.1499,398.21909 L 4756.9165,422.64179 L 4739.4713,430.492 L 4694.1142,437.46983 L 4676.6693,445.32004 z"
       style="opacity:1;fill:#fcf5e3;fill-opacity:1;fill-rule:evenodd;stroke:#000000;stroke-width:8.36820412;stroke-linecap:butt;stroke-linejoin:miter;stroke-miterlimit:4;stroke-dasharray:none;stroke-opacity:1;display:inline"
       id="path3198" />
    <path
       d="M 4676.6693,445.32004 L 4694.1142,437.46983 L 4739.4713,430.492 L 4756.9165,422.64179 L 4762.1499,398.21909 L 4781.3395,380.77422 L 4794.4234,370.30717 L 4797.9123,341.52317 L 4753.4273,340.6511 L 4618.2283,368.56271 L 4504.8356,367.69064 L 4503.0911,426.13071 L 4510.9413,422.64179 L 4554.554,412.17474 C 4554.554,412.17474 4610.3781,415.66397 4619.1007,419.15288 C 4621.8516,420.25309 4618.3645,421.57265 4618.2283,423.51386 L 4638.2901,418.2805 C 4638.2901,418.2805 4649.9286,423.15267 4654.8629,424.38625 C 4659.7972,425.61983 4674.0525,442.70319 4674.0525,442.70319 L 4676.6693,445.32004 z"
       style="opacity:1;fill:#fcf5e3;fill-opacity:1;fill-rule:evenodd;stroke:#000000;stroke-width:8.36820412;stroke-linecap:butt;stroke-linejoin:miter;stroke-miterlimit:4;stroke-dasharray:none;stroke-opacity:1;display:inline"
       id="path3183" />
    <path
       style="opacity:1;fill:#fcf5e3;fill-opacity:1;fill-rule:evenodd;stroke:#000000;stroke-width:8.36820412;stroke-linecap:butt;stroke-linejoin:miter;stroke-miterlimit:4;stroke-dasharray:none;stroke-opacity:1;display:inline"
       d="M 4405.6212,380.22694 L 4405.6212,409.01094 C 4405.6212,417.93154 4409.857,425.43374 4415.2159,431.68918 L 4484.996,433.43363 L 4503.3133,426.45581 L 4505.0577,368.01543 L 4418.7048,367.14336 C 4418.7048,367.14336 4408.6818,376.95801 4405.6212,380.22694 z"
       id="path3022" />
    <path
       d="M 6285.9741,693.90895 L 6161.2419,703.50361 L 6154.2641,727.92631 L 6126.3519,738.39305 L 6129.8411,755.83792 L 6115.8848,815.15037 L 6133.33,857.01794 L 6077.5058,870.9739 L 6021.6817,940.7531 L 6011.2146,951.22015 L 5979.8135,961.68689 L 5972.8357,1045.4219 L 5934.4564,1094.2676 L 5917.0115,1153.5798 L 5920.5004,1195.4473 L 5962.3686,1146.602 L 5979.8135,1237.3152 L 5923.9896,1394.3185 L 5905.6721,1486.7762 L 5936.2011,1505.0932 L 6061.8054,1505.0932 L 6082.7392,1471.0758 C 6082.7392,1471.0758 6105.649,1459.0246 6134.2021,1451.8865 C 6162.7554,1444.7483 6110.6515,1381.2349 6201.3657,1325.4114 C 6201.3657,1325.4114 6326.9342,1281.2822 6304.2914,1225.1037 C 6273.108,1147.7354 6318.2474,1077.6948 6318.2474,1077.6948 L 6354.0098,1018.3824 C 6354.0098,1018.3824 6395.5717,992.6591 6366.2213,990.4709 C 6314.1494,986.5888 6301.6743,959.94243 6301.6746,959.94243 L 6317.375,849.16773 L 6289.4631,768.04943 L 6285.9741,693.90895 z"
       style="opacity:1;fill:#fcf5e3;fill-opacity:1;fill-rule:evenodd;stroke:#000000;stroke-width:8.36820412;stroke-linecap:butt;stroke-linejoin:miter;stroke-miterlimit:4;stroke-dasharray:none;stroke-opacity:1;display:inline"
       id="path3027" />
    <path
       d="M 5739.072,1416.1246 L 5735.583,1366.4069 L 5753.0282,1258.249 L 5739.072,1216.3811 L 5676.27,1226.8482 L 5634.4018,1202.4255 L 5627.4239,1167.5357 L 5634.4018,1111.7122 L 5616.9569,1101.2455 L 5550.6657,1129.1571 L 5533.2205,1129.1571 L 5529.7316,1104.7344 L 5494.8415,1118.6903 L 5477.3966,1136.1352 L 5452.9733,1115.2014 L 5470.4185,1076.8228 L 5484.3745,1031.466 L 5418.0833,1014.0214 L 5334.3472,1062.8668 L 5351.7924,1076.8228 L 5358.7702,1083.8006 L 5358.7702,1101.2455 L 5278.523,1108.2233 L 5254.1,1129.1571 C 5254.1,1129.1571 5240.144,1132.646 5226.1881,1129.1571 C 5215.935,1126.5939 5176.0532,1117.0165 5146.813,1110.8401 L 5137.2183,1198.9366 L 5102.3282,1223.3593 L 5038.6539,1223.3593 L 4944.4507,1243.4207 L 4845.886,1347.2175 L 4870.3093,1445.7807 L 4909.5607,1475.4371 L 4851.1197,1490.2651 L 4865.948,1505.0932 L 4899.9657,1514.6878 L 4899.9657,1598.423 L 4959.2788,1628.0794 L 5190.4256,1724.8981 L 5235.7827,1648.1408 L 5265.4394,1633.3127 L 5275.0341,1539.1105 L 5254.9724,1464.97 L 5200.8927,1421.358 L 5245.3774,1366.4069 L 5418.0833,1381.2349 L 5467.8017,1401.2966 L 5521.8814,1386.4683 L 5570.7274,1381.2349 L 5689.3539,1416.1246 L 5739.072,1416.1246 z"
       style="opacity:1;fill:#fcf5e3;fill-opacity:1;fill-rule:evenodd;stroke:#000000;stroke-width:8.36820412;stroke-linecap:butt;stroke-linejoin:miter;stroke-miterlimit:4;stroke-dasharray:none;stroke-opacity:1;display:inline"
       id="path3032" />
    <path
       d="M 6032.1487,927.66952 L 6028.6598,923.30822 L 5979.8135,895.39661 L 5937.9456,898.88553 L 5934.4564,877.95174 L 5885.6103,877.95174 L 5864.6762,895.39661 L 5836.7643,867.48499 L 5763.4953,853.52903 L 5746.0501,895.39661 L 5679.7589,926.79714 L 5686.737,993.0877 L 5686.737,1007.0433 L 5658.8248,1104.7344 L 5690.2259,1139.6241 L 5690.2259,1178.0028 L 5684.1202,1225.9758 L 5739.072,1216.3811 L 5753.0282,1258.249 L 5735.583,1366.4069 L 5739.072,1416.1246 L 5813.2134,1470.2034 L 5876.8877,1470.2034 L 5905.6721,1486.7762 L 5923.9896,1394.3185 L 5979.8135,1237.3152 L 5962.3686,1146.602 L 5920.5004,1195.4473 L 5917.0115,1153.5798 L 5934.4564,1094.2676 L 5972.8357,1045.4219 L 5979.8135,961.68689 L 6011.2146,951.22015 L 6021.6817,940.7531 L 6032.1487,927.66952 z"
       style="opacity:1;fill:#fcf5e3;fill-opacity:1;fill-rule:evenodd;stroke:#000000;stroke-width:8.36820412;stroke-linecap:butt;stroke-linejoin:miter;stroke-miterlimit:4;stroke-dasharray:none;stroke-opacity:1;display:inline"
       id="path3037" />
    <path
       d="M 6253.7006,478.46533 L 6206.599,508.1214 L 6182.176,508.1214 L 6161.2419,476.72056 L 6098.4399,515.09922 L 6091.4618,536.03301 L 6105.4178,543.01114 L 6112.3959,560.45602 L 6112.3959,563.94493 L 6049.5939,584.87872 L 6028.6598,602.32359 L 5969.3467,616.27924 L 5951.9016,647.68008 L 5948.4126,703.50361 L 6011.2146,748.8601 L 6021.6817,762.81575 L 6049.5939,773.2828 L 6087.9729,710.48144 L 6105.4178,717.45926 L 6122.863,727.92631 L 6129.8411,737.52098 L 6154.2641,727.92631 L 6161.2419,703.50361 L 6285.9741,693.90895 L 6283.3573,639.82987 L 6290.3354,578.77296 L 6300.8022,481.95424 C 6300.8022,481.95424 6270.0381,488.52098 6253.7006,478.46533 z"
       style="opacity:1;fill:#fcf5e3;fill-opacity:1;fill-rule:evenodd;stroke:#000000;stroke-width:8.36820412;stroke-linecap:butt;stroke-linejoin:miter;stroke-miterlimit:4;stroke-dasharray:none;stroke-opacity:1;display:inline"
       id="path3042" />
    <path
       d="M 5062.2045,565.68939 L 5087.4999,587.49524 L 5137.2183,587.49524 L 5156.4079,602.32359 L 5156.4079,616.27924 L 5211.3597,626.74629 L 5215.721,636.34096 L 5186.0643,660.76365 L 5206.126,695.6534 L 5171.236,734.90414 L 5171.236,784.62192 L 5152.0466,788.98321 L 5146.813,818.63928 L 5152.0466,823.87265 C 5152.0466,823.87265 5171.5614,839.00006 5191.298,843.93436 C 5211.0349,848.86836 5206.126,853.52903 5206.126,853.52903 L 5253.2279,872.71836 L 5287.2456,870.9739 L 5292.479,846.55089 L 5284.6288,818.63928 L 5334.3472,787.23876 L 5369.2372,802.06679 L 5396.2771,788.98321 L 5373.5985,752.34901 L 5400.6384,742.75434 L 5455.5902,764.56052 L 5472.163,760.19922 L 5467.8017,747.11564 L 5470.4185,732.28729 L 5474.7798,688.67526 C 5474.7795,688.67526 5482.0313,680.526 5472.163,675.59169 C 5462.2947,670.65769 5445.1231,626.74629 5445.1231,626.74629 L 5450.3568,602.32359 L 5462.5683,577.02851 L 5455.5902,543.01114 C 5455.5905,543.01114 5450.3311,538.0511 5435.5284,528.1828 C 5420.7258,518.31481 5393.6602,517.71606 5393.6602,517.71606 L 5378.8322,517.71606 L 5391.0437,478.46533 L 5369.2372,475.84849 L 5349.1755,471.48719 L 5319.5188,481.08186 L 5307.3073,488.05999 C 5307.3076,488.05999 5309.3254,486.01617 5299.4571,481.08186 C 5293.6231,478.16501 5290.7596,477.66763 5286.3732,475.84849 C 5285.3828,487.84409 5284.6288,502.88803 5284.6288,502.88803 L 5269.8004,510.73824 L 5250.6111,513.35476 L 5238.3996,552.60581 L 5220.9544,555.22234 L 5203.5095,543.01114 L 5196.5314,515.9716 L 5188.6812,481.08186 L 5173.8528,475.84849 L 5152.0466,471.48719 L 5144.1964,475.84849 L 5111.9229,501.14357 L 5104.9451,529.92757 L 5095.3501,549.98897 L 5067.4382,559.58363 L 5062.2045,565.68939 z"
       style="opacity:1;fill:#fcf5e3;fill-opacity:1;fill-rule:evenodd;stroke:#000000;stroke-width:8.36820412;stroke-linecap:butt;stroke-linejoin:miter;stroke-miterlimit:4;stroke-dasharray:none;stroke-opacity:1;display:inline"
       id="path3057" />
    <path
       d="M 5062.2045,565.68939 L 5067.4382,559.58363 L 5095.3501,549.98897 L 5104.9451,529.92757 L 5111.9229,501.14357 L 5144.1964,475.84849 L 5152.0466,471.48719 L 5173.8528,475.84849 L 5188.6812,481.08186 L 5196.5314,515.9716 L 5203.5095,543.01114 L 5220.9544,555.22234 L 5238.3996,552.60581 L 5250.6111,513.35476 L 5269.8004,510.73824 L 5284.6288,502.88803 C 5284.6288,502.88803 5285.3828,487.84409 5286.3732,475.84849 C 5283.3396,474.59012 5277.6509,471.48719 5277.6509,471.48719 L 5270.6728,425.25832 L 5187.8088,421.76941 L 5063.0769,345.0124 L 4989.8078,344.14002 L 4998.5301,379.90184 L 4979.3408,404.32453 L 4994.1688,433.98091 L 4954.0454,493.29336 L 4920.0274,532.54409 L 4909.5607,582.26188 L 4929.6224,621.51292 L 4994.1688,602.32359 L 5018.5921,543.01114 L 5053.4822,557.83918 L 5062.2045,565.68939 z"
       style="opacity:1;fill:#fcf5e3;fill-opacity:1;fill-rule:evenodd;stroke:#000000;stroke-width:8.36820412;stroke-linecap:butt;stroke-linejoin:miter;stroke-miterlimit:4;stroke-dasharray:none;stroke-opacity:1;display:inline"
       id="path3052" />
    <path
       d="M 5762.6229,855.27349 L 5728.6052,797.70549 L 5690.2259,790.72767 L 5672.7811,804.68332 L 5655.3359,797.70549 L 5648.358,769.79388 L 5620.4458,769.79388 L 5592.5339,759.32683 L 5564.6216,773.2828 L 5536.7097,755.83792 L 5512.2867,755.83792 L 5491.3526,748.8601 L 5469.5461,739.26543 L 5467.8017,747.11564 L 5472.163,760.19922 L 5455.5902,764.56052 L 5400.6384,742.75434 L 5373.5985,752.34901 L 5396.2771,788.98321 L 5369.2372,802.06679 L 5334.3472,787.23876 L 5284.6288,818.63928 L 5292.479,846.55089 L 5287.2456,870.9739 L 5253.2279,872.71836 L 5254.9724,873.59043 L 5191.298,927.66952 L 5171.236,922.43615 L 5131.9846,922.43615 L 5087.4999,942.49755 L 5087.4999,1026.2326 L 5043.0152,1070.717 L 5077.9052,1070.717 L 5146.813,1109.9677 L 5146.813,1110.8401 C 5176.0532,1117.0165 5215.935,1126.5939 5226.1881,1129.1571 C 5240.144,1132.646 5254.1,1129.1571 5254.1,1129.1571 L 5278.523,1108.2233 L 5358.7702,1101.2455 L 5358.7702,1083.8006 L 5351.7924,1076.8228 L 5334.3472,1062.8668 L 5418.0833,1014.0214 L 5484.3745,1031.466 L 5470.4185,1076.8228 L 5452.9733,1115.2014 L 5477.3966,1136.1352 L 5494.8415,1118.6903 L 5529.7316,1104.7344 L 5533.2205,1129.1571 L 5550.6657,1129.1571 L 5616.9569,1101.2455 L 5634.4018,1111.7122 L 5627.4239,1167.5357 L 5634.4018,1202.4255 L 5676.27,1226.8482 L 5684.1202,1225.9758 L 5690.2259,1178.0028 L 5690.2259,1139.6241 L 5658.8248,1104.7344 L 5686.737,1007.0433 L 5686.737,993.0877 L 5679.7589,926.79714 L 5746.0501,895.39661 L 5762.6229,855.27349 z"
       style="opacity:1;fill:#fcf5e3;fill-opacity:1;fill-rule:evenodd;stroke:#000000;stroke-width:8.36820412;stroke-linecap:butt;stroke-linejoin:miter;stroke-miterlimit:4;stroke-dasharray:none;stroke-opacity:1;display:inline"
       id="path3062" />
    <path
       d="M 5956.2629,638.95748 L 5926.6062,632.85204 L 5910.0334,631.97966 L 5901.3111,638.95748 L 5891.7161,675.59169 L 5879.5046,680.82506 L 5849.8482,680.82506 L 5829.7862,663.3805 L 5825.4249,633.72411 L 5805.3632,638.95748 L 5787.9183,651.16899 L 5771.3455,645.93562 L 5742.5612,616.27924 L 5718.1382,631.10759 L 5686.737,659.0192 L 5679.7589,659.0192 L 5671.9087,636.34096 L 5650.9746,624.12945 L 5644.8688,630.2352 L 5615.2124,654.6579 L 5615.2124,663.3805 L 5620.4458,701.75884 L 5583.8113,713.97035 L 5529.7316,736.64859 L 5520.1369,755.83792 L 5536.7097,755.83792 L 5564.6216,773.2828 L 5592.5339,759.32683 L 5620.4458,769.79388 L 5648.358,769.79388 L 5655.3359,797.70549 L 5672.7811,804.68332 L 5690.2259,790.72767 L 5728.6052,797.70549 L 5762.6229,855.27349 L 5763.4953,853.52903 L 5836.7643,867.48499 L 5864.6762,895.39661 L 5885.6103,877.95174 L 5934.4564,877.95174 L 5937.9456,898.88553 L 5979.8135,895.39661 L 6028.6598,923.30822 L 6032.1487,927.66952 L 6077.5058,870.9739 L 6133.33,857.01794 L 6115.8848,815.15037 L 6129.8411,755.83792 L 6126.3519,738.39305 L 6129.8411,737.52098 L 6122.863,727.92631 L 6105.4178,717.45926 L 6087.9729,710.48144 L 6049.5939,773.2828 L 6021.6817,762.81575 L 6011.2146,748.8601 L 5948.4126,703.50361 L 5951.9016,647.68008 L 5956.2629,638.95748 z"
       style="opacity:1;fill:#fcf5e3;fill-opacity:1;fill-rule:evenodd;stroke:#000000;stroke-width:8.36820412;stroke-linecap:butt;stroke-linejoin:miter;stroke-miterlimit:4;stroke-dasharray:none;stroke-opacity:1;display:inline"
       id="path3087" />
    <path
       d="M 5826.2973,639.82987 C 5831.6445,622.61564 5840.2532,585.75079 5840.2532,585.75079 L 5808.8524,525.56627 L 5798.3853,520.3329 L 5794.024,515.9716 L 5757.3895,497.65466 L 5765.2397,481.95424 L 5766.9842,471.48719 L 5728.6052,463.63698 L 5700.693,445.32004 L 5694.5872,446.19211 L 5678.0144,463.63698 L 5643.1244,465.38144 L 5648.358,471.48719 L 5641.3799,494.16543 L 5623.9347,515.09922 L 5589.0447,539.52223 L 5592.5339,548.24451 L 5613.4677,581.38981 L 5634.4018,591.85654 L 5658.8248,616.27924 L 5650.9746,624.12945 L 5671.9087,636.34096 L 5679.7589,659.0192 L 5686.737,659.0192 L 5718.1382,631.10759 L 5742.5612,616.27924 L 5771.3455,645.93562 L 5787.9183,651.16899 L 5805.3632,638.95748 L 5825.4249,633.72411 L 5826.2973,639.82987 z"
       style="opacity:1;fill:#fcf5e3;fill-opacity:1;fill-rule:evenodd;stroke:#000000;stroke-width:8.36820412;stroke-linecap:butt;stroke-linejoin:miter;stroke-miterlimit:4;stroke-dasharray:none;stroke-opacity:1;display:inline"
       id="path3092" />
    <path
       d="M 5931.8398,319.71732 L 5940.5624,334.54535 L 5941.4345,328.4396 L 5931.8398,319.71732 z"
       style="opacity:1;fill:#fcf5e3;fill-opacity:1;fill-rule:evenodd;stroke:#000000;stroke-width:8.36820412;stroke-linecap:butt;stroke-linejoin:miter;stroke-miterlimit:4;stroke-dasharray:none;stroke-opacity:1;display:inline"
       id="path3101" />
    <path
       d="M 5892.5885,256.91596 L 5918.756,298.78353 L 5913.5226,288.31648 L 5906.5444,274.36083 L 5899.5663,244.70445 L 5899.5663,242.95999 C 5899.5663,242.95999 5895.1463,251.61198 5892.5885,256.91596 z"
       style="opacity:1;fill:#fcf5e3;fill-opacity:1;fill-rule:evenodd;stroke:#000000;stroke-width:8.36820412;stroke-linecap:butt;stroke-linejoin:miter;stroke-miterlimit:4;stroke-dasharray:none;stroke-opacity:1;display:inline"
       id="path3099" />
    <path
       d="M 5797.513,519.46052 L 5798.3853,520.3329 L 5808.8524,525.56627 L 5840.2532,585.75079 C 5840.2532,585.75079 5831.6445,622.61564 5826.2973,639.82987 L 5829.7862,663.3805 L 5849.8482,680.82506 L 5879.5046,680.82506 L 5891.7161,675.59169 L 5901.3111,638.95748 L 5910.0334,631.97966 L 5926.6062,632.85204 L 5956.2629,638.95748 L 5969.3467,616.27924 L 6028.6598,602.32359 L 6049.5939,584.87872 L 6112.3959,563.94493 L 6112.3959,560.45602 L 6105.4178,543.01114 L 6091.4618,536.03301 L 6098.4399,515.09922 L 6155.1362,480.20978 L 6149.0304,467.99828 L 6129.8411,452.29786 L 6107.1625,441.83112 L 6072.2725,429.61962 L 6053.0828,408.68583 L 6052.2104,407.81376 L 6039.1269,417.40843 C 6039.1269,417.40843 6033.8932,434.85299 6026.9154,436.59776 C 6019.9372,438.34221 5986.7916,438.34221 5986.7916,438.34221 L 5972.8357,417.40843 L 5953.646,398.21909 L 5943.179,387.75204 L 5939.6901,341.52317 L 5931.8398,402.58008 L 5923.1172,414.79158 L 5901.3111,432.23646 L 5878.6325,454.9147 L 5842.8701,461.89253 L 5838.5088,485.44315 L 5814.9581,503.7601 L 5797.513,519.46052 z"
       style="opacity:1;fill:#fcf5e3;fill-opacity:1;fill-rule:evenodd;stroke:#000000;stroke-width:8.36820412;stroke-linecap:butt;stroke-linejoin:miter;stroke-miterlimit:4;stroke-dasharray:none;stroke-opacity:1;display:inline"
       id="path3097" />
    <path
       d="M 5797.513,519.46052 L 5814.9581,503.7601 L 5838.5088,485.44315 L 5842.8701,461.89253 L 5878.6325,454.9147 L 5901.3111,432.23646 L 5923.1172,414.79158 L 5931.8398,402.58008 L 5939.6901,341.52317 L 5939.6901,340.6511 L 5940.5624,334.54535 L 5931.8398,319.71732 L 5929.223,317.97286 L 5922.2449,304.88928 L 5918.756,298.78353 L 5892.5885,256.91596 C 5885.1694,272.30037 5870.744,297.20131 5847.2314,297.03907 C 5816.4845,296.82098 5678.8868,283.9555 5678.8868,283.9555 L 5637.891,233.36533 L 5572.4719,233.36533 L 5546.3044,290.93332 C 5551.7022,296.37286 5564.6216,307.50581 5564.6216,307.50581 L 5573.3442,345.88447 L 5587.3002,354.60707 L 5587.3002,384.26313 L 5594.2783,389.4965 L 5606.4898,398.21909 L 5620.4458,419.15288 L 5625.6795,450.5534 L 5634.4018,454.04232 L 5643.1244,465.38144 L 5678.0144,463.63698 L 5694.5872,446.19211 L 5700.693,445.32004 L 5728.6052,463.63698 L 5766.9842,471.48719 L 5765.2397,481.95424 L 5757.3895,497.65466 L 5794.024,515.9716 L 5797.513,519.46052 z"
       style="opacity:1;fill:#fcf5e3;fill-opacity:1;fill-rule:evenodd;stroke:#000000;stroke-width:8.36820412;stroke-linecap:butt;stroke-linejoin:miter;stroke-miterlimit:4;stroke-dasharray:none;stroke-opacity:1;display:inline"
       id="path3077" />
    <path
       d="M 5632.6573,453.17025 L 5615.2124,452.29786 L 5596.0228,443.57558 L 5578.5776,438.34221 L 5569.8553,445.32004 L 5550.6657,485.44315 L 5533.2205,461.02045 L 5479.1411,450.5534 L 5451.2289,481.95424 L 5404.1273,466.25382 L 5387.5545,478.46533 L 5391.0437,478.46533 L 5378.8322,517.71606 L 5393.6602,517.71606 C 5393.6602,517.71606 5420.7258,518.31481 5435.5284,528.1828 C 5450.3311,538.0511 5455.5905,543.01114 5455.5902,543.01114 L 5462.5683,577.02851 L 5450.3568,602.32359 L 5445.1231,626.74629 C 5445.1231,626.74629 5462.2947,670.65769 5472.163,675.59169 C 5482.0313,680.526 5474.7795,688.67526 5474.7798,688.67526 L 5470.4185,732.28729 L 5469.5461,739.26543 L 5491.3526,748.8601 L 5512.2867,755.83792 L 5520.1369,755.83792 L 5529.7316,736.64859 L 5583.8113,713.97035 L 5620.4458,701.75884 L 5615.2124,663.3805 L 5615.2124,654.6579 L 5644.8688,630.2352 L 5658.8248,616.27924 L 5634.4018,591.85654 L 5613.4677,581.38981 L 5592.5339,548.24451 L 5589.0447,539.52223 L 5623.9347,515.09922 L 5641.3799,494.16543 L 5648.358,471.48719 L 5634.4018,454.04232 L 5632.6573,453.17025 z"
       style="opacity:1;fill:#fcf5e3;fill-opacity:1;fill-rule:evenodd;stroke:#000000;stroke-width:8.36820412;stroke-linecap:butt;stroke-linejoin:miter;stroke-miterlimit:4;stroke-dasharray:none;stroke-opacity:1;display:inline"
       id="path3082" />
    <path
       d="M 5546.3044,290.93332 L 5529.7316,327.56753 L 5320.3912,389.4965 L 5291.6069,426.13071 L 5270.6728,425.25832 L 5277.6509,471.48719 C 5277.6509,471.48719 5289.5885,476.14786 5299.4571,481.08186 C 5309.3254,486.01617 5307.3076,488.05999 5307.3073,488.05999 L 5319.5188,481.08186 L 5349.1755,471.48719 L 5369.2372,475.84849 L 5387.5545,478.46533 L 5404.1273,466.25382 L 5451.2289,481.95424 L 5479.1411,450.5534 L 5533.2205,461.02045 L 5550.6657,485.44315 L 5569.8553,445.32004 L 5578.5776,438.34221 L 5596.0228,443.57558 L 5615.2124,452.29786 L 5632.6573,453.17025 L 5625.6795,450.5534 L 5620.4458,419.15288 L 5606.4898,398.21909 L 5594.2783,389.4965 L 5587.3002,384.26313 L 5587.3002,354.60707 L 5573.3442,345.88447 L 5564.6216,307.50581 C 5564.6216,307.50581 5551.7022,296.37286 5546.3044,290.93332 z"
       style="opacity:1;fill:#fcf5e3;fill-opacity:1;fill-rule:evenodd;stroke:#000000;stroke-width:8.36820412;stroke-linecap:butt;stroke-linejoin:miter;stroke-miterlimit:4;stroke-dasharray:none;stroke-opacity:1;display:inline"
       id="path3072" />
    <path
       d="M 5899.5663,242.95999 L 5899.5663,244.70445 L 5906.5444,274.36083 L 5913.5226,288.31648 L 5918.756,298.78353 L 5929.223,317.97286 L 5941.4345,328.4396 L 5939.6901,340.6511 L 5943.179,387.75204 L 5953.646,398.21909 L 5972.8357,417.40843 L 5986.7916,438.34221 C 5986.7916,438.34221 6019.9372,438.34221 6026.9154,436.59776 C 6033.8932,434.85299 6039.1269,417.40843 6039.1269,417.40843 L 6052.2104,407.81376 L 6047.8492,403.45246 L 6074.0169,368.56271 L 6099.3475,304.92474 L 6035.6376,267.38269 L 5933.5843,218.5373 L 5899.5663,242.95999 z"
       style="opacity:1;fill:#fcf5e3;fill-opacity:1;fill-rule:evenodd;stroke:#000000;stroke-width:8.36820412;stroke-linecap:butt;stroke-linejoin:miter;stroke-miterlimit:4;stroke-dasharray:none;stroke-opacity:1;display:inline"
       id="path3067"
       inkscape:transform-center-x="3.70376"
       inkscape:transform-center-y="10.222039" />
    <path
       d="M 6100.1844,305.76135 L 6074.0169,368.56271 L 6047.8492,403.45246 L 6053.0828,408.68583 L 6072.2725,429.61962 L 6107.1625,441.83112 L 6129.8411,452.29786 L 6149.0304,467.99828 L 6155.1362,480.20978 L 6161.2419,476.72056 L 6182.176,508.1214 L 6206.599,508.1214 L 6253.7006,478.46533 C 6246.5477,474.06261 6243.9773,467.65027 6244.1059,454.04232 C 6244.2638,437.32987 6325.2255,404.32453 6325.2255,404.32453 L 6326.0976,351.11784 L 6379.3049,325.82307 C 6379.3049,325.82307 6374.0715,286.79012 6364.4769,280.46627 C 6354.8819,274.14274 6330.4589,307.50581 6330.4589,307.50581 C 6330.4589,307.50581 6255.4357,275.78552 6240.617,278.72181 C 6145.4593,297.57694 6112.3959,312.73949 6112.3959,312.73949 L 6100.1844,305.76135 z"
       style="opacity:1;fill:#fcf5e3;fill-opacity:1;fill-rule:evenodd;stroke:#000000;stroke-width:8.36820412;stroke-linecap:butt;stroke-linejoin:miter;stroke-miterlimit:4;stroke-dasharray:none;stroke-opacity:1;display:inline"
       id="path1873" />
    <path
       d="M 3663.1124,1369.0234 L 3495.6403,1457.1198 L 3460.7502,1457.1198 L 3418.882,1512.9434 L 3377.0138,1715.3034 L 3397.9479,1840.9061 L 3335.1459,1973.4867 L 3349.1019,2057.2218 L 3328.1678,2120.0232 L 3321.1896,2189.8027 L 3342.1237,2196.7805 L 3188.6075,2664.3019 L 3258.3877,2775.949 L 3483.4288,2952.1416 L 3488.6621,2943.4193 L 3663.1124,2768.9709 L 4088.7713,2580.5668 L 4172.5077,2503.8095 L 4144.5955,2468.92 L 4179.4856,2385.1846 L 4207.3978,2350.2951 L 4172.5077,2259.5819 L 4172.5077,2120.0232 L 4130.6395,1994.4205 L 4095.7495,1973.4867 L 4081.7935,1938.5972 L 4060.8594,1875.7959 L 4109.7054,1826.9502 L 3991.0793,1638.5461 L 3879.431,1582.7226 L 3816.629,1485.0318 L 3732.8926,1485.0318 L 3732.8926,1394.3185 L 3663.1124,1369.0234 z"
       style="opacity:1;fill:#fcf5e3;fill-opacity:1;fill-rule:evenodd;stroke:#000000;stroke-width:8.36820412;stroke-linecap:butt;stroke-linejoin:miter;stroke-miterlimit:4;stroke-dasharray:none;stroke-opacity:1;display:inline"
       id="path2936" />
    <path
       d="M 2904.2533,2306.6831 L 2899.0199,2345.9339 L 2321.589,2295.344 L 2257.0424,2438.3916 L 2050.3186,2496.8317 L 1985.772,2452.3472 L 1936.0537,2530.849 L 2021.5343,2581.4392 L 1963.9657,2581.4392 L 1943.0317,2652.9628 L 2035.4904,2723.6144 L 2035.4904,2774.2046 L 1893.3133,2781.1824 L 1757.2421,2866.662 L 1564.4744,2909.4019 L 1507.7779,2959.1197 L 1478.9936,3088.2114 L 1328.9663,3166.7131 L 1143.1767,3195.4971 L 1112.6478,3191.1358 L 1341.1778,3913.3516 L 1915.1196,3808.6827 L 1916.8641,3813.044 L 1995.3667,3773.7929 L 2232.6194,3976.153 L 2560.586,3759.8373 L 2728.0584,3710.9916 L 2965.311,3717.9697 L 3251.4095,3362.095 L 3483.4288,2952.1416 L 3258.3877,2775.949 L 3188.6075,2664.3019 L 3316.8287,2272.6654 L 3021.1351,2364.2508 L 2993.2231,2294.4716 L 2937.399,2297.9605 L 2904.2533,2306.6831 z"
       style="opacity:1;fill:#fcf5e3;fill-opacity:1;fill-rule:evenodd;stroke:#000000;stroke-width:8.36820412;stroke-linecap:butt;stroke-linejoin:miter;stroke-miterlimit:4;stroke-dasharray:none;stroke-opacity:1;display:inline"
       id="path2941" />
    <path
       d="M 2789.116,1485.9038 L 2790.8606,1492.8817 L 2751.6092,1660.3523 L 2799.5832,1682.1581 L 2799.5832,1745.8319 L 2792.605,1874.9235 L 2830.9842,1924.6413 L 2820.5172,1967.3812 L 2864.1298,2081.6448 L 2925.1874,2106.0675 L 2992.3508,2174.1023 L 2915.5927,2217.7143 L 2904.2533,2306.6831 L 2937.399,2297.9605 L 2993.2231,2294.4716 L 3021.1351,2364.2508 L 3316.8287,2272.6654 L 3342.1237,2196.7805 L 3321.1896,2189.8027 L 3328.1678,2120.0232 L 3349.1019,2057.2218 L 3335.1459,1973.4867 L 3397.9479,1840.9061 L 3377.0138,1715.3034 L 3416.2652,1527.7714 L 3404.926,1530.3882 L 3373.5249,1561.7888 L 3342.1237,1561.7888 L 3331.6567,1530.3882 L 3303.7448,1533.8772 L 3240.9425,1575.7447 L 3223.4976,1558.2999 L 3209.5416,1516.4323 L 3213.0305,1467.5869 L 3171.1623,1429.2082 L 3129.2944,1429.2082 L 3069.9813,1467.5869 L 3028.1132,1446.6531 L 2951.355,1425.7193 L 2923.4429,1457.1198 L 2832.7288,1474.5647 L 2789.116,1485.9038 z"
       style="opacity:1;fill:#fcf5e3;fill-opacity:1;fill-rule:evenodd;stroke:#000000;stroke-width:8.36820412;stroke-linecap:butt;stroke-linejoin:miter;stroke-miterlimit:4;stroke-dasharray:none;stroke-opacity:1;display:inline"
       id="path2946" />
    <path
       d="M 2970.5446,1430.9527 L 2975.778,1416.1246 L 3049.9195,1371.6402 L 3064.7477,1351.5788 L 3062.131,1320.178 L 3086.5541,1302.7331 L 3098.7656,1285.2882 L 3059.5142,1248.6544 L 3052.5362,1171.897 L 3054.2808,1132.646 L 3032.4744,1080.3117 L 2906.8702,1026.2326 L 2902.5089,969.53709 C 2877.0612,981.2895 2846.6248,996.4392 2816.156,1020.9992 C 2798.8223,1034.9715 2777.9553,1043.771 2755.9704,1049.7832 C 2733.9856,1055.7955 2710.3258,1059.22 2689.6793,1060.25 C 2648.3862,1062.3101 2616.4101,1056.7611 2616.4101,1056.7611 L 2621.6436,1105.6068 L 2706.2521,1139.6241 L 2741.1422,1302.7331 L 2785.627,1346.3452 L 2759.4594,1375.1291 L 2789.116,1485.9038 L 2832.7288,1474.5647 L 2923.4429,1457.1198 L 2951.355,1425.7193 L 2970.5446,1430.9527 z"
       style="opacity:1;fill:#fcf5e3;fill-opacity:1;fill-rule:evenodd;stroke:#000000;stroke-width:8.36820412;stroke-linecap:butt;stroke-linejoin:miter;stroke-miterlimit:4;stroke-dasharray:none;stroke-opacity:1;display:inline"
       id="path2951" />
    <path
       d="M 3325.5509,1022.7437 L 3274.0881,1157.069 L 3276.7049,1204.1699 L 3296.7666,1231.2095 C 3296.7666,1231.2095 3318.2992,1243.5704 3328.1678,1246.0375 C 3338.0361,1248.5047 3360.441,1285.2882 3360.441,1285.2882 L 3363.0578,1320.178 L 3281.9386,1383.8517 L 3197.3301,1453.6309 L 3213.0305,1467.5869 L 3209.5416,1516.4323 L 3223.4976,1558.2999 L 3240.9425,1575.7447 L 3303.7448,1533.8772 L 3331.6567,1530.3882 L 3342.1237,1561.7888 L 3373.5249,1561.7888 L 3404.926,1530.3882 L 3416.2652,1527.7714 L 3418.882,1512.9434 L 3460.7502,1457.1198 L 3495.6403,1457.1198 L 3663.1124,1369.0234 L 3656.1346,1366.4069 L 3680.5576,1345.4731 L 3600.3105,1209.4033 L 3642.1783,1157.069 L 3635.2005,1143.113 L 3607.2883,1108.2233 L 3537.5082,1108.2233 L 3460.7502,1108.2233 L 3432.838,1087.2895 L 3383.9919,1080.3117 L 3335.1459,1066.3557 L 3325.5509,1022.7437 z"
       style="opacity:1;fill:#fcf5e3;fill-opacity:1;fill-rule:evenodd;stroke:#000000;stroke-width:8.36820412;stroke-linecap:butt;stroke-linejoin:miter;stroke-miterlimit:4;stroke-dasharray:none;stroke-opacity:1;display:inline"
       id="path2956" />
    <path
       d="M 3021.1351,1075.0783 L 3032.4744,1080.3117 L 3054.2808,1132.646 L 3052.5362,1171.897 L 3059.5142,1248.6544 L 3098.7656,1285.2882 L 3086.5541,1302.7331 L 3062.131,1320.178 L 3064.7477,1351.5788 L 3049.9195,1371.6402 L 2975.778,1416.1246 L 2970.5446,1430.9527 L 3028.1132,1446.6531 L 3069.9813,1467.5869 L 3129.2944,1429.2082 L 3171.1623,1429.2082 L 3197.3301,1453.6309 L 3281.9386,1383.8517 L 3363.0578,1320.178 L 3360.441,1285.2882 C 3360.441,1285.2882 3338.0361,1248.5047 3328.1678,1246.0375 C 3318.2992,1243.5704 3296.7666,1231.2095 3296.7666,1231.2095 L 3276.7049,1204.1699 L 3274.0881,1157.069 L 3325.5509,1022.7437 L 3321.1896,1003.5545 L 3202.5635,947.73092 L 3186.8631,947.73092 L 3151.1006,984.3651 L 3118.8274,984.3651 L 3109.2325,1014.0214 L 3076.9593,1014.0214 L 3074.3425,1041.0606 L 3021.1351,1075.0783 z"
       style="opacity:1;fill:#fcf5e3;fill-opacity:1;fill-rule:evenodd;stroke:#000000;stroke-width:8.36820412;stroke-linecap:butt;stroke-linejoin:miter;stroke-miterlimit:4;stroke-dasharray:none;stroke-opacity:1;display:inline"
       id="path2964" />
    <path
       d="M 3021.1351,1075.0783 L 3074.3425,1041.0606 L 3076.9593,1014.0214 L 3109.2325,1014.0214 L 3118.8274,984.3651 L 3151.1006,984.3651 L 3186.8631,947.73092 L 3181.6294,947.73092 L 3146.7393,905.86335 L 3028.1132,912.84149 L 3028.1132,898.88553 L 2982.7561,850.91219 L 2977.5225,853.52903 L 2956.5885,946.85885 C 2956.5885,946.85885 2938.7641,951.77465 2912.1037,963.43134 C 2909.3948,964.61565 2905.3869,968.20781 2902.5089,969.53709 L 2906.8702,1026.2326 L 3021.1351,1075.0783 z"
       style="opacity:1;fill:#fcf5e3;fill-opacity:1;fill-rule:evenodd;stroke:#000000;stroke-width:8.36820412;stroke-linecap:butt;stroke-linejoin:miter;stroke-miterlimit:4;stroke-dasharray:none;stroke-opacity:1;display:inline"
       id="path2890" />
  </g>
  <g
     inkscape:groupmode="layer"
     id="layer5"
     inkscape:label="mer"
     style="display:inline">
    <path
       d="M 3254.4961,717.08269 C 3254.4961,717.08269 3195.6032,803.50089 3195.6032,803.50089 C 3195.6032,803.50089 3108.8328,794.12558 3108.8328,794.12558 C 3108.8328,794.12558 2978.4849,851.16606 2978.4849,851.16606 C 2978.4849,851.16606 2956.5788,947.27935 2956.5788,947.27935 C 2883.0422,972.29609 2844.5878,1002.4222 2809.8732,1028.9257 C 2788.1139,1045.5384 2695.146,1065.5979 2601.0851,1054.4536 C 2419.6567,1082.3652 2476.8498,1191.9584 2379.1576,1080.3117 C 2281.4654,968.66471 2281.4654,968.66471 2281.4654,968.66471 L 2155.8611,1010.5322 L 2044.2129,982.6207 L 1974.4327,968.66471 L 1862.7845,1010.5322 L 1709.2681,1010.5322 L 1611.5759,898.88553 L 1499.9277,773.2828 L 1472.0156,675.59169 L 1444.1036,703.50361 L 1388.2794,731.41522 L 1304.5433,731.41522 L 997.5106,1373.3847 L 760.25808,1554.8109 L 383.4452,1708.3253 L -4.1841033,2005.4863 L -4.1070633,-378.20307 L 384.55219,-379.48526 L 309.63501,-42.025565 C 307.38989,21.83364 331.77943,-0.1510883 254.45464,138.78688 L 411.35725,117.35728 L 606.74172,103.4013 L 648.60981,173.18081 L 830.03818,103.4013 L 1025.4226,117.35728 L 1123.1149,242.95999 L 1192.895,382.51868 L 1206.8511,494.16543 L 1346.4113,577.90058 L 1444.1036,619.76815 L 1583.6638,452.29786 L 1751.1362,424.38625 L 1862.7845,354.60707 L 2113.993,354.60707 L 2141.9051,368.56271 L 2239.5973,326.69514 L 2421.0257,382.51868 L 2546.63,354.60707 L 2644.3222,382.51868 L 2742.0144,201.09242 L 2742.0144,187.13646 L 2867.6188,47.578085 L 3118.8274,61.533734 L 3090.9153,-36.157051 L 3132.7834,-189.6717 L 3301.9488,-378.82515 L 7654.5374,-378.22205 L 7626.6252,-343.18603 L 7626.6252,-231.53927 L 7710.3613,-119.89251 L 7766.1854,-147.80412 L 8008.999,-50.113013 L 8006.6044,1889.7515 L 7724.3176,1889.7515 L 7584.7573,1819.9723 L 7431.2408,1778.1048 L 7333.5487,1736.2372 L 7277.7246,1610.6345 L 7263.7686,1596.6785 L 7305.6365,1498.9874 L 7152.1203,1498.9874 L 7124.208,1582.7226 L 7068.3839,1582.7226 L 6900.9117,1443.1642 L 6942.7796,1359.4287 L 7068.3839,1247.782 L 7193.9882,1052.4001 L 7249.8123,857.01794 L 7110.2521,675.59169 L 7054.4279,577.90058 L 6970.6918,536.03301 L 7012.56,466.25382 L 7138.1643,396.47464 L 7180.0322,201.09242 L 7166.0762,145.26889 L 7040.4719,201.09242 L 6928.8236,326.69514 L 6845.0875,270.87161 L 6872.9995,229.00403 L 6859.0435,103.4013 L 6719.4832,61.533734 L 6496.1869,117.35728 L 6398.4945,215.04838 L 6362.7506,268.62914 L 6332.4211,306.90675 C 6332.4211,306.90675 6267.2882,280.73897 6242.5871,278.86868 C 6233.1233,278.15225 6106.866,308.88374 6106.866,308.88374 C 6106.866,308.88374 6035.5692,264.43541 6035.5692,264.43541 C 6035.5692,264.43541 5929.8381,217.15403 5929.8381,217.15403 C 5929.8381,217.15403 5903.4763,244.04043 5903.4763,244.04043 C 5882.68,282.26062 5870.3251,296.34525 5847.0098,296.66251 C 5847.0098,296.66251 5679.5354,283.90811 5679.5354,283.90811 C 5679.5354,283.90811 5640.7705,232.46313 5640.7705,232.46313 C 5640.7705,232.46313 5572.4439,232.48259 5572.4439,232.48259 C 5572.4439,232.48259 5524.4788,329.57527 5524.4788,329.57527 C 5524.4788,329.57527 5323.1273,384.03688 5323.1273,384.03688 C 5323.1273,384.03688 5290.2352,425.19054 5290.2352,425.19054 L 5187.6381,422.15759 C 5187.6381,422.15759 5058.7658,343.62568 5058.7658,343.62568 C 5058.7658,343.62568 4752.4109,338.86522 4752.4109,338.86522 C 4752.4109,338.86522 4618.7147,369.73855 4618.7147,369.73855 C 4618.7147,369.73855 4504.4436,367.95675 4504.4436,367.95675 C 4504.4436,367.95675 4419.2747,367.32004 4419.2747,367.32004 C 4379.0709,413.2555 4309.9084,471.05571 4286.2266,464.65686 C 4265.2542,458.98981 4232.3144,445.33573 4206.237,445.46815 C 4160.2033,445.70131 4139.0173,458.15037 4131.4608,460.24786 C 4066.0548,478.40163 3983.745,482.6261 3983.745,482.6261 C 3983.745,482.6261 3828.1749,488.36753 3828.1749,488.36753 C 3828.1749,488.36753 3662.9672,551.30288 3662.9672,551.30288 C 3662.9672,551.30288 3627.913,560.2715 3627.913,560.2715 C 3627.913,560.2715 3454.8036,661.4898 3454.8036,661.4898 C 3454.8036,661.4898 3391.8563,760.95644 3391.8563,760.95644 C 3391.8563,760.95644 3316.7204,776.58029 3316.7204,776.58029 C 3316.7204,776.58029 3254.4961,717.08269 3254.4961,717.08269 z"
       style="display:inline;opacity:1;fill:#daf0fd;fill-opacity:1;fill-rule:evenodd;stroke:#27aaea;stroke-width:8.36820411999999790;stroke-linecap:butt;stroke-linejoin:miter;stroke-miterlimit:4;stroke-dasharray:none;stroke-opacity:1"
       id="path1979"
       sodipodi:nodetypes="cccccscscccccccccccccccccccccccccccccccccccccccccccccccccccccccccccccccccccccccccccccccccccccscccccccccccccccccssscccccccc" />
  </g>
</svg>
