<?xml version="1.0" encoding="UTF-8" standalone="no"?>
<!-- Created with Inkscape (http://www.inkscape.org/) -->

<svg
   xmlns:dc="http://purl.org/dc/elements/1.1/"
   xmlns:cc="http://creativecommons.org/ns#"
   xmlns:rdf="http://www.w3.org/1999/02/22-rdf-syntax-ns#"
   xmlns:svg="http://www.w3.org/2000/svg"
   xmlns="http://www.w3.org/2000/svg"
   xmlns:sodipodi="http://sodipodi.sourceforge.net/DTD/sodipodi-0.dtd"
   xmlns:inkscape="http://www.inkscape.org/namespaces/inkscape"
   width="1299"
   height="1615"
   id="svg2"
   version="1.1"
   inkscape:version="0.48.0 r9654"
   sodipodi:docname="DA - 32-01 - El Bayadh - Wilaya d'El Bayadh map.svg">
  <defs
     id="defs4" />
  <sodipodi:namedview
     id="base"
     pagecolor="#ffffff"
     bordercolor="#666666"
     borderopacity="1.0"
     inkscape:pageopacity="0.0"
     inkscape:pageshadow="2"
     inkscape:zoom="0.7"
     inkscape:cx="-19.689537"
     inkscape:cy="1057.9323"
     inkscape:document-units="px"
     inkscape:current-layer="layer2"
     showgrid="false"
     fit-margin-top="0"
     fit-margin-left="0"
     fit-margin-right="0"
     fit-margin-bottom="0"
     inkscape:window-width="1920"
     inkscape:window-height="1053"
     inkscape:window-x="1431"
     inkscape:window-y="-9"
     inkscape:window-maximized="1"
     showguides="true"
     inkscape:guide-bbox="true" />
  <metadata
     id="metadata7">
    <rdf:RDF>
      <cc:Work
         rdf:about="">
        <dc:format>image/svg+xml</dc:format>
        <dc:type
           rdf:resource="http://purl.org/dc/dcmitype/StillImage" />
        <dc:title />
      </cc:Work>
    </rdf:RDF>
  </metadata>
  <g
     inkscape:groupmode="layer"
     id="layer2"
     inkscape:label="Communes"
     transform="translate(460.92857,637.35715)"
     style="display:inline">
    <path
       style="fill:#fefee4;fill-opacity:1;stroke:#000000;stroke-width:3;stroke-linecap:butt;stroke-linejoin:miter;stroke-miterlimit:4;stroke-opacity:1;stroke-dasharray:none;display:inline"
       d="m 436.0625,17.5 -6.40625,13.9375 13.1875,25.71875 1.09375,15.34375 -4.65625,1.78125 -9.625,2.875 -3.21875,4.28125 -19.65625,20 -1.4375,10 -4.625,16.40625 17.5,-0.34375 5.34375,-0.34375 11.78125,2.84375 -0.6875,29.28125 10.34375,7.5 8.21875,16.4375 7.5,7.125 c 0,0 -23.58928,10.73661 -25.375,11.09375 l -3,1.875 5.0625,43.9375 -6.0625,8.09375 -9.59375,18.6875 -2.03125,5.8125 -33.34375,54.28125 0,8.09375 -7.5625,4.28125 -2.53125,25 -14.15625,17.6875 0.53125,22.46875 2,1.90625 5,14.28125 -16.09375,19.65625 -0.34375,12.15625 0,3.1875 -34.28125,26.09375 -7.15625,22.125 L 317.5,525 l -5,13.5625 12.5,18.21875 2.15625,4.65625 -7.875,13.5625 -6.4375,55.71875 -36.40625,53.5625 -30,22.875 -6.4375,30 -10,7.125 -4.28125,14.28125 -18.5625,10.71875 -8.59375,18.5625 L 174.28125,780 l -67.125,43.5625 -15,1.4375 -1.4375,5.71875 3.5625,20 -7.84375,55.71875 7.125,7.125 -2.84375,24.28125 -15,16.4375 -14.28125,43.5625 4.28125,13.59375 -19.28125,12.8437 -7.15625,23.5626 7.15625,41.4374 -20.71875,14.2813 -13.5625,34.2813 L 25,1145 l -4.28125,20.7188 21.4375,18.5624 13.5625,30 38.5625,30.7188 -10,35 -25,33.5625 15,32.1563 101.4375,107.125 56.4375,62.875 79.28125,79.2812 95,11.4375 c 0,0 50.70536,-29.2902 53.5625,-30.7187 2.85714,-1.4286 83.5625,-41.4376 83.5625,-41.4376 L 642.15625,1460 l 67.125,-37.1562 70.71875,-46.4063 4.28125,-4.6563 153.9375,-97.5 105.00005,-59.2812 129.625,-81.0625 19.3124,-27.5 2.8438,-3.5937 78.3125,-95.4376 L 1252.5938,845.78125 1286.9375,818 1232.375,708.90625 1215.7188,616.46875 1199.5625,577.0625 1183.4062,561.40625 1145.5,496.75 l -0.5,-18.6875 -9.5938,-13.125 70.7188,-12.125 -4.0312,-30.3125 -31.8438,4.5625 -58.0625,-13.125 -7.5937,-19.71875 -36.4063,-16.9375 c -1.726,-8.09297 -0.6875,-34.4375 -0.6875,-34.4375 l 6.4375,-8.5625 -46.4375,-38.21875 -0.1875,-2.09375 1.0313,-15.40625 -11.875,-30.5625 -13.9063,-16.40625 -5.03125,-6.0625 -0.75,-1.96875 -3.375,-4.46875 -3.75,-0.875 -19.84375,-1.4375 -1.96875,0 -24.8125,1.4375 -2.0625,-0.25 L 920,190.1875 l -17.9375,-11.625 -21.21875,-13.625 -0.5,-1.78125 -1.5,-19.1875 -15.65625,-14.90625 -2.84375,-1.90625 -7.5,-13.59375 L 848.5625,102.84375 767.15625,95 l -1.4375,-3.5625 0.71875,-8.9375 7.5,-15.71875 5,-17.84375 L 751.78125,38.21875 695,29.28125 676.78125,26.0625 l -20.71875,3.59375 -17.125,11.0625 -33.21875,13.5625 -2.875,-0.34375 -3.5625,-2.15625 -2.5,-2.5 -16.4375,-17.125 -18.1875,4.28125 -20.71875,7.84375 -23.59375,2.5 -24.625,-3.5625 L 481.78125,31.4375 465,26.78125 436.0625,17.5 z"
       id="path4114"
       inkscape:connector-curvature="0"
       transform="translate(-460.92857,-637.35715)" />
    <path
       style="fill:#fefee4;fill-opacity:1;stroke:#000000;stroke-width:1px;stroke-linecap:butt;stroke-linejoin:miter;stroke-opacity:1"
       d="M 327.14286,561.42857 345,575.71428 l 5,22.14286 15,11.42857 33.57143,3.57143 L 426.42857,605 505,605.71428 l -5.71428,30.71429 5,26.42857 0,38.57143 14.28571,75 10.71429,17.14286 5,21.42857 102.85714,112.85714 33.57143,13.57143 7.85714,22.85714 12.85714,11.42857 7.85715,14.28572 45,51.4286 23.57142,44.2857 5,42.1428 8.57143,37.8572 6.42857,42.1428 L 780,1376.4286 709.28572,1422.8571 642.14286,1460 l -98.57143,74.2857 c 0,0 -80.71429,40 -83.57143,41.4286 -2.85714,1.4286 -53.57143,30.7143 -53.57143,30.7143 l -95,-11.4286 -79.28571,-79.2857 -56.42857,-62.8572 -101.428576,-107.1428 -15,-32.1429 25,-33.5714 10,-35 -38.571428,-30.7143 -13.571429,-30 L 20.714286,1165.7143 25,1145 l -12.857143,-7.1429 13.571429,-34.2857 20.714286,-14.2857 -7.142858,-41.4286 7.142858,-23.5714 19.285714,-12.8571 -4.285714,-13.57146 14.285714,-43.57143 15,-16.42857 2.857143,-24.28571 -7.142857,-7.14286 7.857142,-55.71429 -3.571428,-20 L 92.142857,825 107.14286,823.57143 174.28571,780 l 24.28572,7.85714 8.57143,-18.57143 18.57143,-10.71428 4.28571,-14.28572 10,-7.14285 6.42857,-30 30,-22.85715 36.42857,-53.57143 L 319.28571,575 z"
       id="path3008"
       inkscape:connector-curvature="0"
       transform="translate(-460.92857,-637.35715)" />
    <path
       id="path3021"
       style="fill:#fefee4;fill-opacity:1;stroke:#000000;stroke-width:1px;stroke-linecap:butt;stroke-linejoin:miter;stroke-opacity:1;display:inline"
       d="M 345,575.71428 327.14286,561.42857 325,556.78571 312.5,538.57143 317.5,525 l -5.71428,-13.92857 7.14285,-22.14286 34.28572,-26.07143 10.71428,7.85714 27.5,4.28572 5.71429,9.28571 30,1.42857 11.07143,12.5 7.5,18.57143 -30.35715,20 -20.35714,2.85714 -30,34.28572 -16.07143,0.71428 z"
       inkscape:connector-curvature="0"
       transform="translate(-460.92857,-637.35715)" />
    <path
       id="path3038"
       style="fill:#fefee4;fill-opacity:1;stroke:#000000;stroke-width:1px;stroke-linecap:butt;stroke-linejoin:miter;stroke-opacity:1;display:inline"
       d="m 784.28572,1371.7857 153.92857,-97.5 105.00001,-59.2857 129.6428,-81.0714 19.2858,-27.5 -72.5,-50.7143 -12.8572,-17.5 -10,-7.5 -48.5714,-84.28573 -30,-60.71429 -6.4286,-16.42857 L 992.5,835 l -70,-51.07143 -14.28571,-20.71429 -54.64286,-53.92857 -18.92857,-75 L 817.5,603.57143 795.71429,582.14285 711.07143,493.21428 697.85714,460 686.07143,451.42857 685.35714,440 l -37.14285,6.78571 -15.71429,9.64286 -45.71428,-2.85714 -17.14286,6.07142 -40,15.71429 -23.57143,5 -6.78571,3.92857 -5,3.21429 -22.14286,3.57143 -5.35714,5.35714 -24.28572,3.21428 -4.28571,-1.42857 7.5,18.57143 -30.35715,20 -20.35714,2.85714 -30,34.28572 -16.07143,0.71428 -3.92857,1.07143 5,22.14286 15,11.42857 33.57143,3.57143 L 426.42857,605 505,605.71428 l -5.71428,30.71429 5,26.42857 0,38.57143 14.28571,75 10.71429,17.14286 5,21.42857 102.85714,112.85714 33.57143,13.57143 7.85714,22.85714 12.85714,11.42857 7.85715,14.28572 45,51.4286 23.57142,44.2857 5,42.1428 8.57143,37.8572 6.42857,42.1428 L 780,1376.4286 z"
       inkscape:connector-curvature="0"
       transform="translate(-460.92857,-637.35715)" />
    <path
       id="path3050"
       style="fill:#fefee4;fill-opacity:1;stroke:#000000;stroke-width:1px;stroke-linecap:butt;stroke-linejoin:miter;stroke-opacity:1;display:inline"
       d="m 391.42857,475 -27.5,-4.28572 -10.71428,-7.85714 0,-3.21429 0.35714,-12.14285 16.07143,-19.64286 -5,-14.28571 43.92857,10 14.64286,11.07142 3.21428,15.35715 0,7.14285 -8.57143,5.71429 -20,2.85714 -4.28571,6.78572 z"
       inkscape:connector-curvature="0"
       transform="translate(-460.92857,-637.35715)" />
    <path
       id="path3067"
       style="fill:#fefee4;fill-opacity:1;stroke:#000000;stroke-width:1px;stroke-linecap:butt;stroke-linejoin:miter;stroke-opacity:1;display:inline"
       d="m 506.07143,480.35714 -6.78571,3.92857 -5,3.21429 -22.14286,3.57143 -5.35714,5.35714 -24.28572,3.21428 -4.28571,-1.42857 -11.07143,-12.5 -30,-1.42857 -5.71429,-9.28571 2.14286,-2.5 4.28571,-6.78572 20,-2.85714 8.57143,-5.71429 0,-7.14285 -3.21428,-15.35715 -14.64286,-11.07142 -43.92857,-10 -1.9981,-1.91565 -0.50507,-22.4759 14.14213,-17.67767 2.52539,-25.00127 7.57614,-4.29315 0,-8.08122 33.33503,-54.2957 30.55712,-7.32361 38.89087,6.31346 41.16372,0.50507 34.34518,-12.87944 26.01143,-4.04061 36.36549,-12.62691 16.66752,-0.25254 4.29315,12.62691 5.05076,1.01015 33.84011,-3.03045 28.53681,-4.79823 9.59645,1.76777 6.06092,10.10152 -19.1929,7.07107 -32.82996,6.31345 -14.64721,7.07107 -23.99112,46.21448 -18.68783,15.65737 -77.52921,-1.01016 -16.92005,5.3033 c 0,0 -3.03046,9.09138 -3.03046,10.85914 0,1.76777 -10.35406,34.09265 -10.35406,34.09265 l -13.8896,13.13199 -2.27284,7.3236 -6.06092,9.09137 c 0,0 14.89975,21.71828 15.15229,25.00128 0.25254,3.283 -11.86929,12.87945 -11.86929,12.87945 0,0 9.34391,10.85914 10.35406,12.12183 z"
       transform="translate(-460.92857,-637.35715)"
       inkscape:connector-curvature="0" />
    <path
       id="path3095"
       style="fill:#fefee4;fill-opacity:1;stroke:#000000;stroke-width:1px;stroke-linecap:butt;stroke-linejoin:miter;stroke-opacity:1;display:inline"
       d="m 684.37835,437.91974 -0.25254,-23.99112 0,-6.81853 6.56599,-30.80965 c 0,0 -5.05076,-1.01015 -6.56599,-1.01015 -1.51523,0 -8.58629,-9.34391 -8.58629,-9.34391 l -31.81981,0.50507 -1.51523,-6.56599 -17.93021,-4.79822 -2.52538,-5.55584 -77.52921,-1.01016 -16.92005,5.3033 c 0,0 -3.03046,9.09138 -3.03046,10.85914 0,1.76777 -10.35406,34.09265 -10.35406,34.09265 l -13.8896,13.13199 -2.27284,7.3236 -6.06092,9.09137 c 0,0 14.89975,21.71828 15.15229,25.00128 0.25254,3.283 -11.86929,12.87945 -11.86929,12.87945 0,0 9.34391,10.85914 10.35406,12.12183 l 0.74262,2.03129 23.57143,-5 40,-15.71429 17.14286,-6.07142 45.71428,2.85714 15.71429,-9.64286 L 685.35714,440 z"
       transform="translate(-460.92857,-637.35715)"
       inkscape:connector-curvature="0" />
    <path
       id="path3002"
       style="fill:#fefee4;fill-opacity:1;stroke:#000000;stroke-width:1px;stroke-linecap:butt;stroke-linejoin:miter;stroke-opacity:1;display:inline"
       d="m 1192.1429,1106.4286 -72.5,-50.7143 -12.8572,-17.5 -10,-7.5 -48.5714,-84.28573 -30,-60.71429 -6.4286,-16.42857 L 992.5,835 l -70,-51.07143 -14.28571,-20.71429 -54.64286,-53.92857 -18.92857,-75 L 817.5,603.57143 795.71429,582.14285 711.07143,493.21428 697.85714,460 686.07143,451.42857 685.35714,440 l -0.97879,-2.08026 -0.25254,-23.99112 3.78807,-0.50507 44.44672,-6.56599 13.63705,-7.57615 19.69798,-6.06091 c 0,0 15.15229,-7.07107 17.17259,-8.08122 2.02031,-1.01016 20.70813,-15.65737 20.70813,-15.65737 l 84.34774,7.57615 10.10152,10.10152 4.04061,10.10153 12.62691,7.07106 83.33758,0.50508 9.09139,-1.01015 16.6675,-25.75889 23.7386,5.05076 6.566,1.01015 13.637,-7.07106 36.8706,17.17259 7.5762,19.69797 58.0837,13.13199 31.8198,-4.54569 4.0406,30.30458 -70.7106,12.12183 9.5964,13.13198 0.5051,18.68782 37.8807,64.64977 16.1624,15.65736 16.1625,39.39595 16.6675,92.42896 54.5482,109.09647 -34.3451,27.7792 20.7081,161.62436 -78.2868,95.4595 z"
       inkscape:connector-curvature="0"
       transform="translate(-460.92857,-637.35715)" />
    <path
       id="path3029"
       style="fill:#fefee4;fill-opacity:1;stroke:#000000;stroke-width:1px;stroke-linecap:butt;stroke-linejoin:miter;stroke-opacity:1;display:inline"
       d="m 684.12581,413.92862 3.78807,-0.50507 44.44672,-6.56599 13.63705,-7.57615 19.69798,-6.06091 c 0,0 15.15229,-7.07107 17.17259,-8.08122 2.02031,-1.01016 20.70813,-15.65737 20.70813,-15.65737 l -4.29063,-0.55334 -8.57143,-3.92857 7.85714,-8.57143 19.64286,-15.71429 0.35714,-5 1.78571,-13.57142 7.85715,-10.35715 -2.85715,-12.85714 L 812.5,284.64286 799.64286,280.71428 795,291.78571 l -8.57143,-5.71428 -0.71428,4.64285 -28.57143,8.21429 c 0,0 -2.14286,9.28571 -2.5,11.07143 -0.35714,1.78571 -3.92857,4.64286 -3.92857,4.64286 l -1.78572,23.57142 -12.85714,15.35715 -7.85714,5.35714 c 0,0 -25.35715,2.5 -28.57143,2.5 -3.21429,0 -18.92857,5.35714 -18.92857,5.35714 l -5.17477,-0.83933 c 0,0 7.07106,9.34391 8.58629,9.34391 1.51523,0 6.56599,1.01015 6.56599,1.01015 l -6.56599,30.80965 0,6.81853"
       transform="translate(-460.92857,-637.35715)"
       inkscape:connector-curvature="0" />
    <path
       id="path3051"
       style="fill:#fefee4;fill-opacity:1;stroke:#000000;stroke-width:1px;stroke-linecap:butt;stroke-linejoin:miter;stroke-opacity:1;display:inline"
       d="m 711.90501,276.80041 c 23.23351,11.11168 33.84011,17.93021 33.84011,17.93021 l 6.06091,0.75762 2.27285,4.04061 3.06398,-0.60028 c 0,0 -2.14286,9.28571 -2.5,11.07143 -0.35714,1.78571 -3.92857,4.64286 -3.92857,4.64286 l -1.78572,23.57142 -12.85714,15.35715 -7.85714,5.35714 c 0,0 -25.35715,2.5 -28.57143,2.5 -3.21429,0 -18.92857,5.35714 -18.92857,5.35714 l -5.17477,-0.83933 -31.81981,0.50507 -1.51523,-6.56599 -17.93021,-4.79822 -2.52538,-5.55584 18.68783,-15.65737 23.99112,-46.21448 14.64721,-7.07107 32.82996,-6.31345 z"
       transform="translate(-460.92857,-637.35715)"
       inkscape:connector-curvature="0" />
    <path
       id="path3066"
       style="fill:#fefee4;fill-opacity:1;stroke:#000000;stroke-width:1px;stroke-linecap:butt;stroke-linejoin:miter;stroke-opacity:1;display:inline"
       d="m 803.57635,369.48191 84.34774,7.57615 -2.56695,-4.20092 -11.42857,-29.64286 -3.21428,-25 5.71428,-6.78571 7.5,-1.07143 -1.42857,-3.21428 -18.21428,-1.42858 -3.21429,-1.42857 L 867.5,286.42857 830.35714,275.35714 807.5,259.64286 l -15.71428,10 -4.28572,5 -7.5,2.14285 -3.21428,2.5 6.78571,6.07143 2.85714,0.71429 8.57143,5.71428 4.64286,-11.07143 12.85714,3.92858 12.85714,14.28571 2.85715,12.85714 -7.85715,10.35715 -1.78571,13.57142 -0.35714,5 -19.64286,15.71429 -7.85714,8.57143 8.57143,3.92857 4.29063,0.55334"
       transform="translate(-460.92857,-637.35715)"
       inkscape:connector-curvature="0" />
    <path
       id="path3080"
       style="fill:#fefee4;fill-opacity:1;stroke:#000000;stroke-width:1px;stroke-linecap:butt;stroke-linejoin:miter;stroke-opacity:1;display:inline"
       d="m 998.03071,404.83725 -83.33758,-0.50508 -12.62691,-7.07106 -4.04061,-10.10153 -10.10152,-10.10152 -2.56695,-4.20092 -11.42857,-29.64286 -3.21428,-25 5.71428,-6.78571 7.5,-1.07143 -1.42857,-3.21428 -18.21428,-1.42858 -3.21429,-1.42857 6.42857,-17.85714 0.97865,-2.30455 6.31345,-9.84899 12.62691,-19.19289 -2.77792,-39.64849 -17.17259,-10.85914 0.75761,-18.68782 12.62691,-20.96067 21.2132,13.63706 17.93021,11.61675 20.96067,27.7792 -8.08122,1.01015 -16.66752,16.66752 -13.13198,48.23478 0.25253,29.29443 13.13199,4.54568 0,3.53554 10.35406,5.55584 22.98097,19.19289 7.57615,29.29443 12.12183,3.28299 6.81853,-8.33375 17.42513,1.51522 3.53553,9.84899 2.27284,20.96067 z"
       inkscape:connector-curvature="0"
       transform="translate(-460.92857,-637.35715)" />
    <path
       d="m 989.28572,238.57143 1.78571,15 12.14287,11.07143 7.5,18.57142 16.7857,12.85715 -0.1749,-2.09842 1.0102,-15.40483 -11.8693,-30.55711 -13.8896,-16.41498 -5.05076,-6.06092 -8.83884,0.50508 -8.08122,-1.76777 -6.06091,-0.75761 14.14213,12.37437 0,1.51523 z"
       style="opacity:0.98999999;fill:#fefee4;fill-opacity:1;stroke:#000000;stroke-width:1px;stroke-linecap:butt;stroke-linejoin:miter;stroke-opacity:1;display:inline"
       id="path3123"
       inkscape:connector-curvature="0"
       transform="translate(-460.92857,-637.35715)" />
    <path
       id="path3134"
       style="opacity:0.98999999;fill:#fefee4;fill-opacity:1;stroke:#000000;stroke-width:1px;stroke-linecap:butt;stroke-linejoin:miter;stroke-opacity:1;display:inline"
       d="m 991.07143,253.57143 12.14287,11.07143 7.5,18.57142 16.7857,12.85715 46.4286,38.21428 -6.4286,8.57143 c 0,0 -1.0714,26.78572 0.7143,34.64286 l -14.1201,6.62912 -6.566,-1.01015 -23.7386,-5.05076 -16.6675,25.75889 -9.09139,1.01015 1.51523,-2.27284 -2.27284,-20.96067 -3.53553,-9.84899 -17.42513,-1.51522 -6.81853,8.33375 -12.12183,-3.28299 -7.57615,-29.29443 -22.98097,-19.19289 2.47076,-0.73154 12.85714,-2.85715 16.78571,-16.07142 7.5,-27.85715 L 960,261.07143 960,260 l 0.89286,-6.25 -8.21429,-15 17.14286,-21.96429 19.82143,1.42857 3.75,0.89286 3.39286,4.46429 0.73992,1.96374 -8.83884,0.50508 -8.08122,-1.76777 -6.06091,-0.75761 14.14213,12.37437 0,1.51523 0.59892,1.16696 1.78571,15 12.14287,11.07143 7.5,18.57142"
       inkscape:connector-curvature="0"
       transform="translate(-460.92857,-637.35715)" />
    <path
       id="path3932"
       style="fill:#fefee4;fill-opacity:1;stroke:#000000;stroke-width:1px;stroke-linecap:butt;stroke-linejoin:miter;stroke-opacity:1;display:inline"
       d="m 969.82143,216.78571 -17.14286,21.96429 8.21429,15 L 960,260 l 0,1.07143 6.42857,18.21428 -7.5,27.85715 -16.78571,16.07142 -12.85714,2.85715 -2.47076,0.73154 -10.35406,-5.55584 0,-3.53554 -13.13199,-4.54568 -0.25253,-29.29443 13.13198,-48.23478 16.66752,-16.66752 8.08122,-1.01015 2.07862,0.25525 24.82142,-1.42857 z"
       inkscape:connector-curvature="0"
       transform="translate(-460.92857,-637.35715)" />
    <path
       id="path3955"
       style="fill:#fefee4;fill-opacity:1;stroke:#000000;stroke-width:1px;stroke-linecap:butt;stroke-linejoin:miter;stroke-opacity:1;display:inline"
       d="M 867.5,286.42857 830.35714,275.35714 807.5,259.64286 l -0.71428,-3.57143 3.92857,-13.21429 5.48897,-17.82704 4.79822,-9.34391 -11.36421,-3.78808 -35.10281,5.05077 27.52666,-42.93149 21.46574,-15.40482 24.4962,-11.11168 15.15229,-18.43528 15.65736,14.89975 1.51523,19.19289 0.50508,1.76777 -12.62691,20.96067 -0.75761,18.68782 17.17259,10.85914 2.77792,39.64849 -12.62691,19.19289 -6.31345,9.84899 z"
       transform="translate(-460.92857,-637.35715)"
       inkscape:connector-curvature="0" />
    <path
       id="path3991"
       style="fill:#ffb380;fill-opacity:1;stroke:#000000;stroke-width:1px;stroke-linecap:butt;stroke-linejoin:miter;stroke-opacity:1;display:inline"
       d="m 757.14286,298.92857 28.57143,-8.21429 0.71428,-4.64285 -2.85714,-0.71429 -6.78571,-6.07143 3.21428,-2.5 7.5,-2.14285 4.28572,-5 15.71428,-10 -0.71428,-3.57143 3.92857,-13.21429 5.48897,-17.82704 4.79822,-9.34391 -11.36421,-3.78808 -35.10281,5.05077 -3.28299,0 -8.33376,-0.75762 -2.27284,3.53554 -13.8896,8.58629 -2.27284,8.33376 -0.50508,9.59645 1.51523,9.09137 c 0,0 -9.84899,11.11168 -11.61676,11.8693 l -2.77791,-1e-5 -19.1929,7.07107 0,2.52538 c 23.23351,11.11168 33.84011,17.93021 33.84011,17.93021 l 6.06091,0.75762 2.27285,4.04061 z"
       inkscape:connector-curvature="0"
       transform="translate(-460.92857,-637.35715)" />
    <path
       id="path4009"
       style="fill:#fefee4;fill-opacity:1;stroke:#000000;stroke-width:1px;stroke-linecap:butt;stroke-linejoin:miter;stroke-opacity:1;display:inline"
       d="m 771.25147,216.94888 -8.33376,-0.75762 -1.13199,-1.5484 c 0,0 -2.14286,1.42857 -2.14286,-6.42858 0,-7.85714 2.14286,-27.5 2.14286,-27.5 L 765,175.35714 l 4.64286,-23.21428 c 0,0 -6.78572,-16.78572 -5,-18.92858 C 766.42857,131.07143 768.21429,130 768.21429,130 L 770,117.14286 l -6.07143,-6.78572 3.21429,-15.357142 81.42857,7.857142 4.28571,10.71429 7.5,13.57143 2.81821,1.92275 -15.15229,18.43528 -24.4962,11.11168 -21.46574,15.40482 -27.52666,42.93149 z"
       transform="translate(-460.92857,-637.35715)"
       inkscape:connector-curvature="0" />
    <path
       id="path4031"
       style="fill:#fefee4;fill-opacity:1;stroke:#000000;stroke-width:1px;stroke-linecap:butt;stroke-linejoin:miter;stroke-opacity:1;display:inline"
       d="m 733.87582,267.20397 c 1.76777,-0.75762 11.61676,-11.8693 11.61676,-11.8693 l -1.51523,-9.09137 0.50508,-9.59645 2.27284,-8.33376 13.8896,-8.58629 2.27284,-3.53554 -1.13199,-1.5484 c 0,0 -2.14286,1.42857 -2.14286,-6.42858 0,-7.85714 2.14286,-27.5 2.14286,-27.5 L 765,175.35714 l 4.64286,-23.21428 c 0,0 -6.78572,-16.78572 -5,-18.92858 C 766.42857,131.07143 768.21429,130 768.21429,130 L 770,117.14286 l -6.07143,-6.78572 3.21429,-15.357142 -1.42857,-3.571428 0.71428,-8.928572 7.5,-15.714285 5,-17.857143 L 751.78572,38.214284 695,29.285713 l -18.21429,-3.214286 -20.71428,3.571428 -17.14286,11.071429 -33.21428,13.571429 -1.42858,7.857143 9.64286,18.571428 0,5.714286 -4.64286,8.214286 5,6.785714 22.85715,19.64286 33.21428,20.35714 18.92858,22.14286 21.07142,20.71428 2.85715,10.71429 10,13.92857 L 725,217.5 l 3.21429,14.28571 -4.64286,12.85715 -7.5,6.42857 -0.63089,4.26324 9.59645,1.76777 6.06092,10.10152 z"
       transform="translate(-460.92857,-637.35715)"
       inkscape:connector-curvature="0" />
    <path
       id="path4052"
       style="fill:#fefee4;fill-opacity:1;stroke:#000000;stroke-width:1px;stroke-linecap:butt;stroke-linejoin:miter;stroke-opacity:1;display:inline"
       d="m 716.07143,251.07143 7.5,-6.42857 4.64286,-12.85715 L 725,217.5 l -1.78571,-8.57143 -10,-13.92857 -2.85715,-10.71429 -21.07142,-20.71428 -18.92858,-22.14286 -33.21428,-20.35714 -11.42858,-9.82143 -4.47046,0.13794 -13.63706,3.03045 -12.62691,2.02031 -5.55584,18.68782 -2.0203,6.06092 -2.02031,20.20305 -5.55584,11.61675 -23.23351,7.57615 -4.54568,8.08122 -7.07107,27.27411 1.51523,9.09138 4.54568,3.53553 15.15229,14.64721 9.59645,10.60661 13.13198,6.56599 1.76777,2.0203 36.36549,-12.62691 16.66752,-0.25254 4.29315,12.62691 5.05076,1.01015 33.84011,-3.03045 28.53681,-4.79823 z"
       transform="translate(-460.92857,-637.35715)"
       inkscape:connector-curvature="0" />
    <path
       id="path4069"
       style="fill:#fefee4;fill-opacity:1;stroke:#000000;stroke-width:1px;stroke-linecap:butt;stroke-linejoin:miter;stroke-opacity:1;display:inline"
       d="m 590.6867,262.40574 -26.01143,4.04061 -34.34518,12.87944 -41.16372,-0.50507 -38.89087,-6.31346 -30.55712,7.32361 2.02031,-5.80837 9.59645,-18.68783 6.06091,-8.08122 -5.05076,-43.94163 18.68782,3.03046 29.7995,7.07106 38.3858,3.03046 20.70813,-1.51523 5.05076,1.01015 1.51523,9.09138 4.54568,3.53553 15.15229,14.64721 9.59645,10.60661 13.13198,6.56599 z"
       inkscape:connector-curvature="0"
       transform="translate(-460.92857,-637.35715)" />
    <path
       id="path4091"
       style="fill:#fefee4;fill-opacity:1;stroke:#000000;stroke-width:1px;stroke-linecap:butt;stroke-linejoin:miter;stroke-opacity:1;display:inline"
       d="m 539.92654,214.92857 -20.70813,1.51523 -38.3858,-3.03046 -29.7995,-7.07106 -18.68782,-3.03046 3.01185,-1.88325 c 1.78572,-0.35714 25.35715,-11.07143 25.35715,-11.07143 l -7.5,-7.14286 L 445,166.78571 l -10.35714,-7.5 0.71428,-29.28571 -11.78571,-2.85714 32.85714,-17.5 16.78572,-16.785719 21.07142,-5 18.57143,-12.142857 26.42857,0.357143 L 565,66.42857 l 30,-10.714286 4.28571,-3.928571 3.57143,2.142857 2.85715,0.357143 -1.42858,7.857143 9.64286,18.571428 0,5.714286 -4.64286,8.214286 5,6.785714 11.42857,9.82143 -4.47046,0.13794 -13.63706,3.03045 -12.62691,2.02031 -5.55584,18.68782 -2.0203,6.06092 -2.02031,20.20305 -5.55584,11.61675 -23.23351,7.57615 -4.54568,8.08122 -7.07107,27.27411 z"
       transform="translate(-460.92857,-637.35715)"
       inkscape:connector-curvature="0" />
    <path
       id="path4110"
       style="fill:#fefee4;fill-opacity:1;stroke:#000000;stroke-width:1px;stroke-linecap:butt;stroke-linejoin:miter;stroke-opacity:1;display:inline"
       d="m 596.78571,49.285713 -16.42857,-17.142858 -18.21428,4.285715 -20.71429,7.857143 -23.57143,2.5 L 493.21429,43.214284 481.78571,31.42857 465,26.785713 l -28.92857,-9.285715 -6.42857,13.928572 13.21428,25.714285 1.07143,15.357143 -4.64286,1.785715 -9.64285,2.857143 -3.21429,4.285714 -19.64286,20 -1.42857,10 -4.64285,16.42857 17.5,-0.35714 5.35714,-0.35714 32.85714,-17.5 16.78572,-16.785719 21.07142,-5 18.57143,-12.142857 26.42857,0.357143 L 565,66.42857 l 30,-10.714286 4.28571,-3.928571 z"
       transform="translate(-460.92857,-637.35715)"
       inkscape:connector-curvature="0" />
  </g>
</svg>
